<svg xmlns="http://www.w3.org/2000/svg" xmlns:xlink="http://www.w3.org/1999/xlink" width="1920" height="1080" viewBox="0 0 1920 1080">
  <defs>
    <clipPath id="clip-path">
      <rect id="Rectangle_1152" data-name="Rectangle 1152" width="1920" height="1080" fill="#fff" stroke="#707070" stroke-width="1"/>
    </clipPath>
    <linearGradient id="linear-gradient" x1="1.144" y1="-0.16" x2="0.022" y2="0.973" gradientUnits="objectBoundingBox">
      <stop offset="0" stop-color="#e9f1bc"/>
      <stop offset="1" stop-color="#28c1aa"/>
    </linearGradient>
    <linearGradient id="linear-gradient-2" x1="0.5" y1="1" x2="0.5" gradientUnits="objectBoundingBox">
      <stop offset="0" stop-color="gray" stop-opacity="0.251"/>
      <stop offset="0.54" stop-color="gray" stop-opacity="0.122"/>
      <stop offset="1" stop-color="gray" stop-opacity="0.102"/>
    </linearGradient>
    <clipPath id="clip-path-2">
      <ellipse id="Ellipse_123" data-name="Ellipse 123" cx="22.5" cy="23.5" rx="22.5" ry="23.5" transform="translate(0.306 -0.136)" fill="#2ac1aa"/>
    </clipPath>
    <linearGradient id="linear-gradient-3" x1="0.5" y1="1" x2="0.5" y2="0" xlink:href="#linear-gradient-2"/>
    <linearGradient id="linear-gradient-4" x1="-4.28" y1="0.935" x2="-4.28" y2="-0.076" xlink:href="#linear-gradient-2"/>
    <clipPath id="clip-path-4">
      <ellipse id="Ellipse_123-3" data-name="Ellipse 123" cx="22.5" cy="23.5" rx="22.5" ry="23.5" transform="translate(0.306 -0.136)" fill="#f2f2f2"/>
    </clipPath>
  </defs>
  <g id="Mask_Group_78" data-name="Mask Group 78" clip-path="url(#clip-path)">
    <path id="Path_543" data-name="Path 543" d="M578.484,22.779c-214.612,0-388.588,173.977-388.588,388.59v697.946H872.317c214.612,0,388.588-173.977,388.588-388.59V22.779Z" transform="translate(636.514 -172.948) rotate(-7)" fill="url(#linear-gradient)"/>
    <g id="Group_1003" data-name="Group 1003" transform="translate(70)">
      <path id="Path_899" data-name="Path 899" d="M781.316,253.4h-4V143.858a63.4,63.4,0,0,0-63.4-63.4H481.829a63.4,63.4,0,0,0-63.4,63.4V744.833a63.4,63.4,0,0,0,63.4,63.4H713.915a63.4,63.4,0,0,0,63.4-63.4V331.38h4Z" transform="translate(607.568 150.544)" fill="#e1dff2"/>
      <path id="Path_900" data-name="Path 900" d="M716.473,96.951H686.178a22.495,22.495,0,0,1-20.827,30.991H532.392a22.495,22.495,0,0,1-20.827-30.991h-28.3A47.348,47.348,0,0,0,435.921,144.3V744.392a47.348,47.348,0,0,0,47.348,47.348h233.2a47.348,47.348,0,0,0,47.348-47.348h0V144.3a47.348,47.348,0,0,0-47.348-47.348Z" transform="translate(607.568 150.544)" fill="#fff"/>
    </g>
    <g id="Union_17" data-name="Union 17" transform="translate(13188 332)" fill="none">
      <path d="M-11999.865,119a20,20,0,0,1-20-20V89.2H-12031V26a20,20,0,0,1,20-20h64.125v9.934H-11811a20,20,0,0,1,20,20V99a20,20,0,0,1-20,20Z" stroke="none"/>
      <path d="M -11810.9990234375 115.9999160766602 C -11806.458984375 115.9999160766602 -11802.1904296875 114.2315139770508 -11798.98046875 111.0204849243164 C -11795.76953125 107.8094863891602 -11794.001953125 103.5403518676758 -11794.001953125 98.99954986572266 L -11794.001953125 87.95462036132812 L -11794.001953125 35.93368530273438 C -11794.001953125 31.39285087585449 -11795.76953125 27.12375068664551 -11798.98046875 23.91271781921387 C -11802.1904296875 20.70168495178223 -11806.458984375 18.93328475952148 -11810.9990234375 18.93328475952148 L -11946.875 18.93328475952148 L -11949.875 18.93328475952148 L -11949.875 15.93328475952148 L -11949.875 8.999517440795898 L -12011 8.999517440795898 C -12015.541015625 8.999517440795898 -12019.8095703125 10.76801776885986 -12023.021484375 13.97925090789795 C -12026.232421875 17.19048500061035 -12028.0009765625 21.4594841003418 -12028.0009765625 25.99991798400879 L -12028.0009765625 86.19861602783203 L -12019.865234375 86.19861602783203 L -12016.865234375 86.19861602783203 L -12016.865234375 89.19861602783203 L -12016.865234375 98.99954986572266 C -12016.865234375 103.5404510498047 -12015.0966796875 107.8095474243164 -12011.88671875 111.0203857421875 C -12008.67578125 114.2314834594727 -12004.40625 115.9999160766602 -11999.865234375 115.9999160766602 L -11810.9990234375 115.9999160766602 M -11810.9990234375 118.9999160766602 L -11999.865234375 118.9999160766602 C -12010.9130859375 118.9999160766602 -12019.865234375 110.0444488525391 -12019.865234375 98.99954986572266 L -12019.865234375 89.19861602783203 L -12031.0009765625 89.19861602783203 L -12031.0009765625 25.99991798400879 C -12031.0009765625 14.95501804351807 -12022.044921875 5.999517917633057 -12011 5.999517917633057 L -11946.875 5.999517917633057 L -11946.875 15.93328475952148 L -11810.9990234375 15.93328475952148 C -11799.9541015625 15.93328475952148 -11791.001953125 24.88878440856934 -11791.001953125 35.93368530273438 L -11791.001953125 87.95462036132812 L -11791.001953125 98.99954986572266 C -11791.001953125 110.0444488525391 -11799.9541015625 118.9999160766602 -11810.9990234375 118.9999160766602 Z" stroke="none" fill="#e1dff2"/>
    </g>
    <g id="Union_18" data-name="Union 18" transform="translate(13188 505)" fill="none">
      <path d="M-11999.865,119a20,20,0,0,1-20-20V89.2H-12031V26a20,20,0,0,1,20-20h64.125v9.934H-11811a20,20,0,0,1,20,20V99a20,20,0,0,1-20,20Z" stroke="none"/>
      <path d="M -11810.9990234375 115.9999160766602 C -11806.458984375 115.9999160766602 -11802.1904296875 114.2315139770508 -11798.98046875 111.0204849243164 C -11795.76953125 107.8094863891602 -11794.001953125 103.5403518676758 -11794.001953125 98.99954986572266 L -11794.001953125 87.95462036132812 L -11794.001953125 35.93368530273438 C -11794.001953125 31.39285087585449 -11795.76953125 27.12375068664551 -11798.98046875 23.91271781921387 C -11802.1904296875 20.70168495178223 -11806.458984375 18.93328475952148 -11810.9990234375 18.93328475952148 L -11946.875 18.93328475952148 L -11949.875 18.93328475952148 L -11949.875 15.93328475952148 L -11949.875 8.999517440795898 L -12011 8.999517440795898 C -12015.541015625 8.999517440795898 -12019.8095703125 10.76801776885986 -12023.021484375 13.97925090789795 C -12026.232421875 17.19048500061035 -12028.0009765625 21.4594841003418 -12028.0009765625 25.99991798400879 L -12028.0009765625 86.19861602783203 L -12019.865234375 86.19861602783203 L -12016.865234375 86.19861602783203 L -12016.865234375 89.19861602783203 L -12016.865234375 98.99954986572266 C -12016.865234375 103.5404510498047 -12015.0966796875 107.8095474243164 -12011.88671875 111.0203857421875 C -12008.67578125 114.2314834594727 -12004.40625 115.9999160766602 -11999.865234375 115.9999160766602 L -11810.9990234375 115.9999160766602 M -11810.9990234375 118.9999160766602 L -11999.865234375 118.9999160766602 C -12010.9130859375 118.9999160766602 -12019.865234375 110.0444488525391 -12019.865234375 98.99954986572266 L -12019.865234375 89.19861602783203 L -12031.0009765625 89.19861602783203 L -12031.0009765625 25.99991798400879 C -12031.0009765625 14.95501804351807 -12022.044921875 5.999517917633057 -12011 5.999517917633057 L -11946.875 5.999517917633057 L -11946.875 15.93328475952148 L -11810.9990234375 15.93328475952148 C -11799.9541015625 15.93328475952148 -11791.001953125 24.88878440856934 -11791.001953125 35.93368530273438 L -11791.001953125 87.95462036132812 L -11791.001953125 98.99954986572266 C -11791.001953125 110.0444488525391 -11799.9541015625 118.9999160766602 -11810.9990234375 118.9999160766602 Z" stroke="none" fill="#e1dff2"/>
    </g>
    <g id="Union_19" data-name="Union 19" transform="translate(13188 678)" fill="none">
      <path d="M-11999.865,119a20,20,0,0,1-20-20V89.2H-12031V26a20,20,0,0,1,20-20h64.125v9.934H-11811a20,20,0,0,1,20,20V99a20,20,0,0,1-20,20Z" stroke="none"/>
      <path d="M -11810.9990234375 115.9999160766602 C -11806.458984375 115.9999160766602 -11802.1904296875 114.2315139770508 -11798.98046875 111.0204849243164 C -11795.76953125 107.8094863891602 -11794.001953125 103.5403518676758 -11794.001953125 98.99954986572266 L -11794.001953125 87.95462036132812 L -11794.001953125 35.93368530273438 C -11794.001953125 31.39285087585449 -11795.76953125 27.12375068664551 -11798.98046875 23.91271781921387 C -11802.1904296875 20.70168495178223 -11806.458984375 18.93328475952148 -11810.9990234375 18.93328475952148 L -11946.875 18.93328475952148 L -11949.875 18.93328475952148 L -11949.875 15.93328475952148 L -11949.875 8.999517440795898 L -12011 8.999517440795898 C -12015.541015625 8.999517440795898 -12019.8095703125 10.76801776885986 -12023.021484375 13.97925090789795 C -12026.232421875 17.19048500061035 -12028.0009765625 21.4594841003418 -12028.0009765625 25.99991798400879 L -12028.0009765625 86.19861602783203 L -12019.865234375 86.19861602783203 L -12016.865234375 86.19861602783203 L -12016.865234375 89.19861602783203 L -12016.865234375 98.99954986572266 C -12016.865234375 103.5404510498047 -12015.0966796875 107.8095474243164 -12011.88671875 111.0203857421875 C -12008.67578125 114.2314834594727 -12004.40625 115.9999160766602 -11999.865234375 115.9999160766602 L -11810.9990234375 115.9999160766602 M -11810.9990234375 118.9999160766602 L -11999.865234375 118.9999160766602 C -12010.9130859375 118.9999160766602 -12019.865234375 110.0444488525391 -12019.865234375 98.99954986572266 L -12019.865234375 89.19861602783203 L -12031.0009765625 89.19861602783203 L -12031.0009765625 25.99991798400879 C -12031.0009765625 14.95501804351807 -12022.044921875 5.999517917633057 -12011 5.999517917633057 L -11946.875 5.999517917633057 L -11946.875 15.93328475952148 L -11810.9990234375 15.93328475952148 C -11799.9541015625 15.93328475952148 -11791.001953125 24.88878440856934 -11791.001953125 35.93368530273438 L -11791.001953125 87.95462036132812 L -11791.001953125 98.99954986572266 C -11791.001953125 110.0444488525391 -11799.9541015625 118.9999160766602 -11810.9990234375 118.9999160766602 Z" stroke="none" fill="#e1dff2"/>
    </g>
    <g id="Group_1001" data-name="Group 1001" transform="translate(852 431.062)">
      <path id="Path_1074" data-name="Path 1074" d="M338.035,501.792a71.7,71.7,0,0,1-1.185-10.916c0-4.385-5.926-8.3-5.926-8.3s-3.686-8.534-6.1-9.779-10.039-12.422-10.039-12.422a10.122,10.122,0,0,0-2.288-6.021,86.27,86.27,0,0,1-6.211-9.375h0c-1.019-1.256-.51-2.133-2.039-9.411q-.13-.569-.284-1.1a1.632,1.632,0,0,0-.154-.462,12.3,12.3,0,0,0,2.892-12.73,5.227,5.227,0,0,0-1.458-2.252c-1.73-1.41-4.492-.83-6.27-2.169l1.885-8.368c.462-2.039.7-4.646-1.1-5.749a9.029,9.029,0,0,0-2.11-.711c-3.105-.984-4.848-4.255-5.642-7.384a25.317,25.317,0,0,1-.616-9.245c.344-2.963,1.185-5.855,1.541-8.83a24.381,24.381,0,0,0-3.757-15.717,12.256,12.256,0,0,0-4.966-4.682c-1.908-.853-4.125-.96-5.926-2.086-3.817-2.371-3.627-8.167-6.661-11.5s-8.427-3.3-12.86-2.157-8.83,3.094-13.382,2.584c-2.928-.32-5.677-1.648-8.605-1.956a8.6,8.6,0,0,0-2.525.119l.059-.107c-2.181.391-4.172,1.6-4.682,3.663a5.653,5.653,0,0,0-.142,1.493c0,1.185.285,2.442.308,3.556a3.461,3.461,0,0,1-.83,2.525c-.581.628-1.446.96-2.015,1.6a2.607,2.607,0,0,0-.747,1.885c0,1.825,2.276,3.425,3.8,4.16h0c-.415.415-.818.842-1.185,1.28a26.929,26.929,0,0,0-6.673,17.933,27.321,27.321,0,0,0,16.594,25.021c-.071.225-.13.439-.213.664a35.226,35.226,0,0,1-1.493,3.876,7.681,7.681,0,0,0-6.436.711c-2.928,2-8.641,1.885-10.17,1.505s-17.412-2.371-18.68-1.885-3.817-1.754-5.464,1.256-2.371,4.646-4.065,5.393-4.575,3.141-4.2,3.639-4.2,3.556-4.2,3.556-3.935,4.137-6.223,4.646-7.112,3.639-7.112,3.639l-5.594,4.386s-4.2.628-2.928-2.252-2.288-6.531-2.288-6.531-7.112-14.425-7.112-17.424-5.843-15.681-5.843-15.681l-.723-.071c-.107-.308-.213-.616-.332-.936a88.467,88.467,0,0,0-3.556-8.9c-2.015-4.137-3.319-4.611-3.319-4.611s-24.654-18.514-40.667-12.872,29.229,22.449,33.294,24.215c1.422.6,2.442,2.6,3.165,4.907a21.063,21.063,0,0,0-8.712,7.93s9.779,21.69,10.027,27.083,6.744,20.446,6.744,20.446,2.371,11.165,15.5,10.537c0,0,18.04,3.307,21.975,0s7.5-5.926,9.411-6.294a7.409,7.409,0,0,0,3.556-2.513s-5.926,37.621-8.89,40.892-28.85,45.526-19.581,53.041a185.851,185.851,0,0,0,23.255,15.409c.794.391,3.153-3.556,6.531-6.341v2.169c.059,15.029,2.015,37.929,4.8,43.049,4.065,7.526,2.371,22.082,2.371,22.082a17.541,17.541,0,0,0,6.875,1.647c.119.486.261,1,.4,1.529,2.24,8.463,5.867,21.548,7.716,25.033,2.809,5.274,4.836,21.951,4.836,21.951s1.648,16.428,1.019,18.692c-.249.865.83,7.681,2.513,16.333h0c-1.031,11.758-2.963,34.432-3.3,42.67h0v1.375h0a9.315,9.315,0,0,0,0,1.541,4.824,4.824,0,0,1-.166,2.371,38.083,38.083,0,0,1-2.762,6.566,31.451,31.451,0,0,0-1.185,3.188c-1.007.439-2.264,1.541-2.963,4.208-1.268,4.9-3.177,18.443-3.177,18.443s-.759,8.3-2.288,10.158-3.046,13.666,7.752,15.171,15.5-5.737,15.5-5.737l-.379-32.832h0a4.741,4.741,0,0,0,.557-.9v-.071c.071-.166.154-.32.225-.51s0-.154.095-.237.107-.261.154-.4a.663.663,0,0,1,0-.142,21.572,21.572,0,0,0,.913-9.779s0-.107,0-.166v-.51a1.519,1.519,0,0,0,0-.225,2.291,2.291,0,0,1,0-.285v-.2a2.151,2.151,0,0,1,.071-.664.437.437,0,0,1,0-.13V760.6a.914.914,0,0,0,0-.178,2.853,2.853,0,0,1,.083-.415v-.095c.095-.486.225-.972.356-1.482v-.107l.142-.5h0c.166-.533.344-1.055.522-1.576v-.107l.178-.486v-.059c.178-.5.367-.984.557-1.446v-.13l.178-.415v-.118l.391-.925h0l3,9.257s1.648,6.9.759,8.522,1.019,8.415,2.288,8.534l-1.185,8.534a130.478,130.478,0,0,0-1.185,14.223c-.083.533-.166,1-.225,1.351-.818,4.362,1.185,11.142,1.185,11.142,10.039,11.853,21.987.925,21.987.925s1.4-6.282,0-7.526-.759-5.772-.759-5.772.628-11.165.759-19.32-6.673-15.326-6.673-15.326l-.379.344c-1.185-3.188-2.643-6.922-2.371-8.593.51-2.88-1.4-33.354-1.4-33.354a181.907,181.907,0,0,0,.439-24.512h0c.166-1.387.32-2.75.474-4.065.77-6.555,1.387-12.161,1.636-15.089h0v-.344c.059-.794.095-1.351.083-1.624,0-.972,0-2.193.095-3.473.249-3.556.794-7.444.794-7.444l2.667-16.179s2.027-7.894,4.954-12.291l.344-.557h0c.119-.19.237-.4.356-.628V639.2l.356-.676v-.095c.415-.806.853-1.742,1.3-2.762l.107-.225.344-.782.13-.308.344-.782c0-.107.083-.2.13-.308.13-.32.261-.64.4-.96l.19-.462c.107-.237.2-.474.3-.723l.261-.616.178-.462.284-.7c0-.107.095-.213.13-.32.723-1.813,1.434-3.556,2.051-5.239h0c.2-.51.391-1,.569-1.47,6.507.4,10.928.771,10.928.771s2.039-14.674,1.4-24.334c-.439-6.59.782-14.887,1.6-19.474.095-.51.178-.96.249-1.363l.178.142c3.188,2.5,5.464-5.772,5.464-5.772s-.853-7.74-2-17.092a8.423,8.423,0,0,0-.119-.936,49.2,49.2,0,0,0,5.559.853s1.019-.095,2.371-.273a67.352,67.352,0,0,0,12.066,5.4l6.732-12.54a51.136,51.136,0,0,1,4.445-7.4c2.039-2.513,9.281-10.537,9.15-12.042s2.371-10.158,4.954-14.045S338.178,502.432,338.035,501.792Zm-28.21,9.482c-2.667,1.126-5.215,7.4-5.334,9.281s-2.928,10.158-5.855,11.165c-2.679.924-7.823,5.642-8.641,6.4-.842.083-1.79.19-2.785.356-1.114-7.918-2.216-14.46-2.928-15.788-2.027-3.769,2.24-15.8,2.24-15.8s.427-12.161,3.094-15.053,2.039-10.158,2.039-10.158.628-3.011.889-4.386,3.781,0,3.8,0h0s6.863,3.757,7.882,9.4,8.51,15.409,8.51,15.409-1.185,3.378,0,5.144-.237,2.951-2.9,4.077Z" transform="translate(-25.811 -294.867)" fill="url(#linear-gradient-2)"/>
      <g id="Group_1010" data-name="Group 1010" transform="translate(-1524.312 -379.717)">
        <g id="Group_1005" data-name="Group 1005" transform="translate(1537.312 363.76)">
          <rect id="Rectangle_740" data-name="Rectangle 740" width="185" height="83" rx="20" transform="translate(9 7.894)" fill="#f7f7f7"/>
          <path id="Rectangle_741" data-name="Rectangle 741" d="M0,0H185a0,0,0,0,1,0,0V5a20,20,0,0,1-20,20H20A20,20,0,0,1,0,5V0A0,0,0,0,1,0,0Z" transform="translate(9 65.894)" fill="#2ac1aa"/>
          <path id="Rectangle_742" data-name="Rectangle 742" d="M20,0H68a0,0,0,0,1,0,0V47A20,20,0,0,1,48,67H0a0,0,0,0,1,0,0V20A20,20,0,0,1,20,0Z" transform="translate(0 -0.106)" fill="#a7e1b6"/>
          <rect id="Rectangle_743" data-name="Rectangle 743" width="96" height="6" transform="translate(84 27.894)" fill="#a7e1b6"/>
          <rect id="Rectangle_744" data-name="Rectangle 744" width="96" height="6" transform="translate(84 37.894)" fill="#d5e8da"/>
          <rect id="Rectangle_745" data-name="Rectangle 745" width="96" height="7" transform="translate(84 47.894)" fill="#d5e8da"/>
        </g>
        <g id="Mask_Group_74" data-name="Mask Group 74" transform="translate(1547.005 369.791)" clip-path="url(#clip-path-2)">
          <path id="Path_1119" data-name="Path 1119" d="M22.9,0A22.9,22.9,0,1,1,0,22.9,22.9,22.9,0,0,1,22.9,0Z" transform="translate(-0.334 0.414)" fill="#a7e1b6"/>
          <ellipse id="Ellipse_121" data-name="Ellipse 121" cx="10.5" cy="11" rx="10.5" ry="11" transform="translate(12.306 8.864)" fill="#fff"/>
          <ellipse id="Ellipse_122" data-name="Ellipse 122" cx="16.5" cy="11" rx="16.5" ry="11" transform="translate(5.306 35.864)" fill="#fff"/>
        </g>
      </g>
      <path id="Path_1075" data-name="Path 1075" d="M121.15,395.611a20.493,20.493,0,0,1,20.529-9.636v14.65h-8.854l-7.017-1.813Z" transform="translate(-20.911 -286.341)" fill="#4c4981"/>
      <path id="Path_1076" data-name="Path 1076" d="M121.15,395.611a20.493,20.493,0,0,1,20.529-9.636v14.65h-8.854l-7.017-1.813Z" transform="translate(-20.911 -286.341)" opacity="0.1"/>
      <path id="Path_1077" data-name="Path 1077" d="M147.1,394.248l-10.893,7.645s-.095-1.541-.367-3.627c-.545-3.947-1.766-9.873-4.4-11.023-4.006-1.754-48.6-18.526-32.785-24.156s40.05,12.836,40.05,12.836,1.256.427,3.248,4.563c1.055,2.169,2.371,5.867,3.485,8.878C146.4,392.091,147.1,394.248,147.1,394.248Z" transform="translate(-25.705 -290.738)" fill="#feb23e"/>
      <path id="Path_1078" data-name="Path 1078" d="M176.345,266.033l1.233-.593,3.485,3.971-2.845,6.069-4.848-1.944,1.126-4.848Z" transform="translate(32.144 -150.753)" fill="#4c4981"/>
      <path id="Path_1079" data-name="Path 1079" d="M200.252,699.071s-3.129-.367-4.386,4.5-3.129,18.407-3.129,18.407-.747,8.3-2.252,10.134-3,13.643,7.633,15.148,15.278-5.725,15.278-5.725l-.379-32.832Z" transform="translate(-8.261 -228.292)" fill="#444053"/>
      <path id="Path_1080" data-name="Path 1080" d="M232.439,700.32s6.7,7.112,6.578,15.29-.759,19.284-.759,19.284-.616,4.5.759,5.76,0,7.5,0,7.5-11.77,10.928-21.655-.913c0,0-1.932-6.768-1.185-11.13s3-24,3-24Z" transform="translate(-3.337 -228.059)" fill="#444053"/>
      <path id="Path_1081" data-name="Path 1081" d="M253.547,575.08s-6.768,18.964-9.648,23.279-4.871,12.279-4.871,12.279L236.4,626.794a88.607,88.607,0,0,0-.877,10.893c.119,3.627-6.507,56.573-6.507,56.573L218.5,707.653s-4.634,9.387-3.888,13.275-.5,10.134-2,12.007c0,0-.249,12.268-.628,15.029s1.387,10.513,0,11.853-19.77.747-20.28-1.505,2.264-13.145,2.264-13.145l1.624-10.513s3.248-5.76,2.5-7.633,1.375-6.258,1.505-6.638,3.556-6.507,2.88-8.878,3.876-52.828,3.876-52.828l12.9-90.508Z" transform="translate(-7.852 -252.543)" fill="#dd9a34"/>
      <path id="Path_1083" data-name="Path 1083" d="M242.842,762.409c.119,1.375-17.649,3.378-20.15,1.873s0-20.15,0-20.15l1.185-8.51c-1.256-.13-3.129-6.886-2.252-8.522s-.759-8.51-.759-8.51l-2.951-9.245-1.8-5.642c-2.916-6.46-7.112-24.891-9.79-38.64-1.659-8.641-2.714-15.409-2.477-16.321.628-2.252-1.007-18.644-1.007-18.644s-1.991-16.594-4.741-21.9c-1.825-3.485-5.393-16.594-7.609-25-1.126-4.326-1.908-7.432-1.908-7.432s18.964-1.588,30.39-2.145c5.286-.249,8.984-.284,8.546.154s-.533,2.726-.51,6.033c0,8.593,1.245,23.706,2.513,27.759,1.754,5.63,3.556,22.52,2.75,24.156s-.5,12.517-.5,12.517a56.216,56.216,0,0,1,2.193,13.595,183.469,183.469,0,0,1-.439,24.464s1.885,30.414,1.375,33.294,4.006,11.853,4.006,13.643,1.138,13.642,1.138,13.642S242.723,761.034,242.842,762.409Z" transform="translate(-8.418 -251.568)" fill="#feb23e"/>
      <path id="Path_1084" data-name="Path 1084" d="M250.037,432.672l-2.157,2.371-1.4,1.505-8.2,8.712-21.157,2.371-11.236-3.011-2.785-.735s0-5.654.51-12.434c.711-8.688,2.43-19.249,6.507-22.117a16.167,16.167,0,0,0,4.741-6.033,33.768,33.768,0,0,0,2.051-5.061c.083-.225.142-.439.213-.652a55.46,55.46,0,0,0,1.991-9.293s2.7-1.493,6.448-3.236c9.8-4.575,26.728-10.881,20.837,3.236a53.231,53.231,0,0,0-2.2,6.353c-.095.308-.178.628-.249.936-1.968,7.87-.664,12.635.806,15.266h0a10.665,10.665,0,0,0,.853,1.292,6.516,6.516,0,0,0,1.422,1.446l2.442,15.468.2,1.28Z" transform="translate(-5.728 -287.476)" fill="#feb23e"/>
      <path id="Path_1085" data-name="Path 1085" d="M244.25,388.987c-1.114,2.679.545-2.193,0,0-4.457,3.177-14.97,12.208-20.885,12.208-3.983,0-5.18-.723-8.605-2.264a55.591,55.591,0,0,0,2.2-9.944S252.381,369.454,244.25,388.987Z" transform="translate(-3.568 -287.35)" opacity="0.1"/>
      <path id="Path_1086" data-name="Path 1086" d="M255.756,378.008a27.261,27.261,0,0,1-24.428,27.131,25.333,25.333,0,0,1-2.857.154,27.261,27.261,0,1,1,27.261-27.261Z" transform="translate(-6.078 -292.822)" fill="#feb23e"/>
      <path id="Path_1087" data-name="Path 1087" d="M261.079,486.371,257.2,496.517s-3.177.142-8.107.3c-16.594.533-53.337,1.185-54.985-3.058a10.275,10.275,0,0,1-.569-3.366c-.225-6.519,2.821-16.535,2.821-16.535s1.754-20.031,1.754-20.9S196.612,438,196.612,438l3-11.26L208,420.813s3.757,5.76,6.009,6.258,5.263,3.259,5.263,3.259,7.372,4.5,9.755,1.991,20.908-13.512,20.908-13.512l9.767,10.762Z" transform="translate(-7.501 -280.216)" opacity="0.1"/>
      <path id="Path_1088" data-name="Path 1088" d="M261.079,487.641,257.2,497.787s-3.177.142-8.107.284h-.486l-7.195.19c-13.228.3-31.469.379-40.987-1.007-3.556-.522-5.926-1.185-6.318-2.252a8.3,8.3,0,0,1-.45-1.861,14.911,14.911,0,0,1-.119-1.505c-.225-6.519,2.821-16.594,2.821-16.594s1.754-20.031,1.754-20.908-1.505-14.9-1.505-14.9l3-11.26,5.772-4.042L208,422.095a37.835,37.835,0,0,0,2.88,3.781,7.538,7.538,0,0,0,3.129,2.465c2.252.51,5.263,3.259,5.263,3.259s7.372,4.516,9.755,2c1.825-1.92,13.038-8.807,18.277-11.948l2.631-1.576,1.316,1.458,8.451,9.316Z" transform="translate(-7.501 -279.981)" fill="#fff"/>
      <path id="Path_1089" data-name="Path 1089" d="M140.76,389.973l-10.893,7.645s-.095-1.541-.367-3.627c5.381-2.264,8.653-7.289,9.6-8.9C140.061,387.816,140.76,389.973,140.76,389.973Z" transform="translate(-19.364 -286.463)" opacity="0.1"/>
      <path id="Path_1090" data-name="Path 1090" d="M180.6,415.726l-2.371-.616s-3.888,4.125-6.14,4.623-7,3.639-7,3.639l-5.512,4.374s-4.137.628-2.88-2.252-2.252-6.507-2.252-6.507-7-14.4-7-17.4-5.76-15.646-5.76-15.646-7.266,14.14-20.529,9.636c0,0,9.636,21.655,9.885,27.036s6.638,20.41,6.638,20.41,2.371,11.142,15.266,10.513c0,0,17.779,3.307,21.655,0s7.384-5.926,9.269-6.282a7.337,7.337,0,0,0,3.5-2.5V429.866Z" transform="translate(-20.911 -286.306)" fill="#3f3d56"/>
      <path id="Path_1091" data-name="Path 1091" d="M152.51,423s3.129,11.639,1.185,12.9Z" transform="translate(-15.101 -279.44)" opacity="0.1"/>
      <path id="Path_1092" data-name="Path 1092" d="M249.094,486.882c-16.594.533-53.337,1.185-54.985-3.046a10.276,10.276,0,0,1-.569-3.366l54.392,2.868Z" transform="translate(-7.499 -268.792)" opacity="0.1"/>
      <path id="Path_1093" data-name="Path 1093" d="M254.13,575.076s-1.019,2.845-2.43,6.59c-6.91-.427-16.06-.865-24.749-.925-3.082,0-6.092,0-8.925.095a66.859,66.859,0,0,0-14.591,1.624,38.5,38.5,0,0,1-13.038,1.671c-1.126-4.326-1.908-7.432-1.908-7.432s18.964-1.588,30.39-2.145l.913-6.365Z" transform="translate(-8.435 -252.54)" opacity="0.1"/>
      <path id="Path_1094" data-name="Path 1094" d="M270.694,545.34l-2.122,4.5s-.3,1.339-.676,3.473c-.806,4.575-2.015,12.86-1.588,19.439.64,9.636-1.375,24.274-1.375,24.274s-46.06-3.876-59.572,0-20.15,0-20.15,0,1.624-14.52-2.371-22.022c-2.75-5.144-4.67-27.972-4.741-42.966,0-6.934.344-12.185,1.185-13.24,2.75-3.39,14.52-37.182,14.52-37.182l2.679.142,7.112.379,40.762,2.145,6.389.332.676,2.074Z" transform="translate(-10.36 -268.579)" fill="#65617d"/>
      <path id="Path_1095" data-name="Path 1095" d="M276.27,525.479l.379,4.006s-20.15-6.566-19.154-14.638,0-7.112,0-7.112l16.215,1.375Z" transform="translate(4.343 -263.747)" fill="#4c4981"/>
      <path id="Path_1096" data-name="Path 1096" d="M276.27,525.479l.379,4.006s-20.15-6.566-19.154-14.638,0-7.112,0-7.112l16.215,1.375Z" transform="translate(4.343 -263.747)" opacity="0.1"/>
      <path id="Path_1097" data-name="Path 1097" d="M164.355,426.232a17.98,17.98,0,0,0,7.112,3.7,4.622,4.622,0,0,1-2.1-.984c-1.446-1.031-2.821-2.145-4.208-3.236-1.114-.877-2.525-2.371-3.911-2.691a21.581,21.581,0,0,0,3.105,3.212Z" transform="translate(-13.482 -279.436)" opacity="0.1"/>
      <path id="Path_1098" data-name="Path 1098" d="M165.005,430.961a8.713,8.713,0,0,1,1.553,2.477,9.956,9.956,0,0,1,.45,3.2,10.1,10.1,0,0,1-.557,4.54l-3.283-7.787c-.557-1.327-1.185-2.655-1.8-3.935-.3-.545-2.157-2.8-1.944-3.271C160.039,424.821,164.4,430.214,165.005,430.961Z" transform="translate(-13.824 -278.89)" opacity="0.1"/>
      <path id="Path_1099" data-name="Path 1099" d="M242.29,467.048a10.477,10.477,0,0,0,5.926-2.738c-3.331.415-6.472,1.719-9.755,2.371a14.5,14.5,0,0,1-9.091-.83C233.1,467.724,238.236,467.783,242.29,467.048Z" transform="translate(-0.861 -271.786)" opacity="0.1"/>
      <path id="Path_1100" data-name="Path 1100" d="M234.891,448.839a2.24,2.24,0,0,1-1.695-.427q-3.745-2.133-7.4-4.48a44.862,44.862,0,0,1-7.23-5C223.536,443.422,228.159,447.215,234.891,448.839Z" transform="translate(-2.862 -276.488)" opacity="0.1"/>
      <path id="Path_1101" data-name="Path 1101" d="M239.265,470.076a15.907,15.907,0,0,0,3.9-.308,5.275,5.275,0,0,0,3.212-2.11,1.813,1.813,0,0,0-1.363.213,23.017,23.017,0,0,1-12.564,1.505C234.477,470.242,237.1,470.064,239.265,470.076Z" transform="translate(-0.29 -271.175)" opacity="0.1"/>
      <path id="Path_1102" data-name="Path 1102" d="M223.178,518.883a40.174,40.174,0,0,1-8,1.576,49.1,49.1,0,0,1-6.329-.119l-10.253-.652-5.132-.332c-.6,0-3.082,0-1.861-1.185.616-.581,4.042-.213,4.919-.237,1.707,0,3.4-.083,5.1-.095,3.39,0,6.792,0,10.181.213Q217.512,518.279,223.178,518.883Z" transform="translate(-7.92 -261.868)" opacity="0.1"/>
      <path id="Path_1103" data-name="Path 1103" d="M211.847,523.146c-1.742-.071-3.983.972-5.772,1.185a38.013,38.013,0,0,1-6.033.249,33.946,33.946,0,0,1-11.651-2.37C196.225,522.6,204.036,522.838,211.847,523.146Z" transform="translate(-8.454 -261.058)" opacity="0.1"/>
      <path id="Path_1104" data-name="Path 1104" d="M190.243,527.58a18.391,18.391,0,0,1,2.24.6c4.314,1.244,8.913.154,13.263-.925-1.09,1.636-3.117,2.371-5.037,2.8a23.706,23.706,0,0,1-9.826.356c-1.031-.2-3.556-.569-4.125-1.636C185.976,527.2,189.283,527.426,190.243,527.58Z" transform="translate(-8.778 -260.123)" opacity="0.1"/>
      <path id="Path_1105" data-name="Path 1105" d="M211.136,534.7a36.319,36.319,0,0,1,3.828,1c4.86,1.185,9.909-.45,14.792-1.565a68.423,68.423,0,0,1,17.91-1.659c-1.079,0-2.785.948-3.84,1.268-1.387.415-2.785.794-4.184,1.185a84.193,84.193,0,0,1-8.368,1.636,85.71,85.71,0,0,1-17.163.747c-2.619-.142-7.112.13-9.411-1.185a10.407,10.407,0,0,1,6.436-1.422Z" transform="translate(-5.432 -259.168)" opacity="0.1"/>
      <path id="Path_1106" data-name="Path 1106" d="M217.869,405.016s.249,11.533-1.636,16.784c-.581,1.636-1.505,4.658-2.5,8.048-1.1,3.757-2.3,7.965-3.224,11.225s-1.529,5.511-1.529,5.511-4.231,34.444-5.334,50.848v.853c-.059.924-.166,1.885-.308,2.88-2.442,16.3-16.5,41.425-21.216,43.44a14.227,14.227,0,0,0-3.971,2.726c0-6.934.344-12.185,1.185-13.24,2.75-3.39,14.52-37.182,14.52-37.182l2.679.142a14.913,14.913,0,0,1-.119-1.505c-.225-6.519,2.821-16.594,2.821-16.594s1.754-20.031,1.754-20.908-1.505-14.9-1.505-14.9l3-11.26,5.772-4.042c.711-8.688,2.43-19.249,6.507-22.117a16.168,16.168,0,0,0,4.741-6.033c.818.107-.664-.6-.664-.6Z" transform="translate(-10.351 -283.869)" opacity="0.1"/>
      <path id="Path_1107" data-name="Path 1107" d="M224.975,398.7a7.491,7.491,0,0,0-6.341.723c-2.88,1.991-8.51,1.873-10.016,1.493s-17.151-2.371-18.4-1.873-3.757-1.754-5.381,1.245-2.371,4.634-4.006,5.393-4.516,3.129-4.137,3.627-4.125,3.556-4.125,3.556L181.7,442.5s-5.926,37.549-8.759,40.8-28.447,45.443-19.273,52.958a184.834,184.834,0,0,0,22.9,15.409c1.007.5,4.634-6.258,9.648-8.392s20.529-30.355,21.548-46.332,5.381-51.7,5.381-51.7,5.381-19.533,7.266-24.784,1.576-16.8,1.576-16.8Z" transform="translate(-15.252 -284.015)" fill="#3f3d56"/>
      <path id="Path_1108" data-name="Path 1108" d="M260.389,559.23l-2.122,4.5s-.3,1.339-.676,3.473a1.967,1.967,0,0,1-1.079-.462c-3.129-2.513-21.536-21.406-22.4-38.19-.652-12.374-.344-23.03-.142-27.783.071-1.493.119-2.371.13-2.6,0,0,14.223-17.281,12.635-23.409s-5.381-38.936-5.381-38.936l-.557-4.3-.948-7.266-2.24-17.613,2.371.545a6.52,6.52,0,0,0,1.422,1.446l2.442,15.468,8.451,9.316,1.375,56.7-3.876,10.146s-3.177.142-8.107.284H241.2Z" transform="translate(-0.056 -282.469)" opacity="0.1"/>
      <path id="Path_1109" data-name="Path 1109" d="M268.049,465.714s-3.556-1.375-3.757,0-.877,4.374-.877,4.374.616,7.266-2,10.146-3.046,15.017-3.046,15.017-4.208,12.019-2.216,15.776c.723,1.363,1.849,8.2,2.975,16.381.711,5.109,1.422,10.739,2.062,15.871,1.185,9.352,1.979,17.068,1.979,17.068s-2.252,8.3-5.381,5.76-21.536-21.43-22.414-38.178c-.616-11.794-.367-22.022-.166-27.072.095-2.145.166-3.354.166-3.354s14.223-17.269,12.647-23.4-5.381-38.936-5.381-38.936l-.664-5.061-.7-5.452-.154-1.185L238.856,406h0c.4.083,14.448,3.259,16.3,5.109s13.263,4.5,13.263,4.5a10.039,10.039,0,0,1,7.112,7.3c.107.344.19.711.273,1.09,1.505,7.266,1.007,8.131,2.015,9.387S268.049,465.714,268.049,465.714Z" transform="translate(0.178 -282.589)" fill="#3f3d56"/>
      <path id="Path_1110" data-name="Path 1110" d="M259.052,524.3c-5.144-1-12.718-3.378-12.552-8.593.166-4.9,6.045-6.649,10.49-7.278C257.761,513.539,258.412,519.169,259.052,524.3Z" transform="translate(2.312 -263.612)" opacity="0.1"/>
      <path id="Path_1111" data-name="Path 1111" d="M274.8,521.884c-.2.439-1.055.818-2.181,1.185a57.21,57.21,0,0,1-8.3,1.351s-17.4-1.375-17.151-9.257c.178-5.666,8.036-7.112,12.457-7.5,1.73-.154,2.939-.13,2.939-.13S275.558,520.26,274.8,521.884Z" transform="translate(2.436 -263.778)" fill="#feb23e"/>
      <path id="Path_1112" data-name="Path 1112" d="M273,521.884c-.2.439-1.055.818-2.181,1.185-4.54-6.069-10.869-13.856-13.963-14.543,0,0,.356-.344.936-.865,1.73-.154,2.94-.13,2.94-.13S273.762,520.26,273,521.884Z" transform="translate(4.232 -263.778)" opacity="0.1"/>
      <path id="Path_1113" data-name="Path 1113" d="M268.5,428.5l5.132.747a88.232,88.232,0,0,0,6.14,9.387,10.205,10.205,0,0,1,2.252,6.009s7.515,11.142,9.885,12.4,6.009,9.767,6.009,9.767,5.926,3.876,5.926,8.3a72.3,72.3,0,0,0,1.126,10.881c.119.628-.877,8.392-3.39,12.268s-5,12.516-4.871,14.022-7.017,9.482-9.02,12.019a50.576,50.576,0,0,0-4.374,7.384l-6.638,12.516s-14.022-20.647-19.154-21.773c0,0,5.76-5.512,8.641-6.507s5.63-9.269,5.76-11.142,2.619-8.143,5.251-9.269,4.006-2.252,2.88-4.006,0-5.132,0-5.132-7.384-9.767-8.392-15.409-7.752-9.387-7.752-9.387l-3.888-9.482Z" transform="translate(4.354 -278.421)" fill="#3f3d56"/>
      <path id="Path_1114" data-name="Path 1114" d="M283.226,468.518a16.227,16.227,0,0,1,10.11-3.828c-2.371.415-4.883.925-6.614,2.584a15.106,15.106,0,0,0-1.825,2.371c-.6.853-5.429,6.993-6.2,6.033C277.548,474.208,282.254,469.348,283.226,468.518Z" transform="translate(8.245 -271.715)" opacity="0.1"/>
      <path id="Path_1115" data-name="Path 1115" d="M272.93,466.04a4.314,4.314,0,0,0,3.556-2.525,14.223,14.223,0,0,0,1.114-4.445,65.879,65.879,0,0,1,1.553-7.6,4.835,4.835,0,0,0,.249-1.588,4.492,4.492,0,0,0-.462-1.529,10.9,10.9,0,0,0-1.09-2.276c-.936,1.055-1.185,3.414-1.576,4.741q-.687,2.56-1.316,5.12C274.755,456.842,273.013,466.04,272.93,466.04Z" transform="translate(7.209 -275.163)" opacity="0.1"/>
      <path id="Path_1116" data-name="Path 1116" d="M280.746,433.133a11.165,11.165,0,0,1-1.73,1.778c-2,1.624-4.741,3-5.026,5.559a6.128,6.128,0,0,1-.3,2.477c-.652,1.114-2.264,1.031-3.556.806a6.258,6.258,0,0,1-3-1.1c-1.339-1.185-1.47-3.2-2.489-4.634a6.329,6.329,0,0,0-5.073-2.276c-1.92-.059-3.828.367-5.737.462a15.9,15.9,0,0,1-3.674-.249c-.4-.071-.794-.154-1.185-.249a15.548,15.548,0,0,1-2.5-.853,12.605,12.605,0,0,1-1.185-.569,16.109,16.109,0,0,1-3.556-2.453c-1.873-1.73-3.425-4.089-3.271-6.649a40.836,40.836,0,0,1,1.067-4.551c.77-4.421-2.169-8.605-5.357-11.77-1.268-1.245-2.619-2.477-3.888-3.757a18.75,18.75,0,0,1-4.587-6.519,19.865,19.865,0,0,1-.818-8.155,55.458,55.458,0,0,0,.249-8.4c-.948-9.956-9.482-17.578-17.945-21.738l-.367-.19a27.261,27.261,0,1,1,36.744,39.92c-.095.308-.178.628-.249.936-1.968,7.87-.664,12.635.806,15.266h0c.4.083,14.449,3.259,16.3,5.109s13.263,4.5,13.263,4.5a10.039,10.039,0,0,1,7.064,7.3Z" transform="translate(-5.039 -292.785)" opacity="0.1"/>
      <path id="Path_1117" data-name="Path 1117" d="M205.346,354.781c.557-.64,1.41-.972,1.979-1.6,1.766-1.92,0-5.061.652-7.6.7-2.821,4.148-4.054,7.041-3.745s5.595,1.624,8.475,1.944c4.48.51,8.818-1.434,13.192-2.572s9.648-1.185,12.671,2.145,2.8,9.056,6.543,11.485c1.73,1.114,3.911,1.185,5.784,2.074a12,12,0,0,1,4.9,4.682,24.523,24.523,0,0,1,3.686,15.681c-.308,2.963-1.185,5.855-1.517,8.818a25.719,25.719,0,0,0,.6,9.221c.794,3.117,2.5,6.389,5.571,7.372A8.749,8.749,0,0,1,277,403.4c1.766,1.09,1.541,3.7,1.09,5.725l-1.9,8.356c1.754,1.339,4.468.759,6.175,2.169A5.014,5.014,0,0,1,283.8,421.9a12.315,12.315,0,0,1-3.674,13.441c-2,1.636-4.741,3-5.026,5.571a5.926,5.926,0,0,1-.3,2.465c-.652,1.114-2.264,1.031-3.556.806a6.14,6.14,0,0,1-2.987-1.1c-1.351-1.185-1.47-3.2-2.489-4.634a6.33,6.33,0,0,0-5.073-2.276c-1.932-.059-3.828.367-5.749.462a16.914,16.914,0,0,1-12.1-4.374,8.771,8.771,0,0,1-3.283-6.638,43.866,43.866,0,0,1,1.067-4.563c.77-4.409-2.169-8.605-5.346-11.758s-6.922-6.08-8.475-10.288c-1.944-5.215,0-11.023-.581-16.594-.948-9.956-9.482-17.578-17.933-21.726C206.365,359.759,203.141,357.282,205.346,354.781Z" transform="translate(-5.45 -294.723)" fill="#444053"/>
      <path id="Path_1118" data-name="Path 1118" d="M272.278,440.522c-1.339-1.185-1.458-3.188-2.477-4.634a6.377,6.377,0,0,0-5.085-2.264c-1.92-.059-3.817.367-5.737.462a16.973,16.973,0,0,1-12.1-4.314c-1.885-1.73-3.425-4.1-3.283-6.649a43.656,43.656,0,0,1,1.067-4.551c.77-4.421-2.169-8.605-5.357-11.77s-6.91-6.08-8.475-10.288c-1.932-5.2,0-11.023-.569-16.594-.948-9.956-9.482-17.589-17.945-21.738-1.979-.972-5.2-3.437-3-5.926.557-.64,1.4-.96,1.979-1.588,1.766-1.92,0-5.073.652-7.609a4.018,4.018,0,0,1,.64-1.387,5.417,5.417,0,0,0-4.611,3.639c-.628,2.536,1.114,5.689-.652,7.609-.569.628-1.422.948-1.979,1.588-2.2,2.513,1.019,4.978,3.011,5.926,8.5,4.16,16.985,11.782,17.933,21.738.522,5.523-1.363,11.343.581,16.594,1.553,4.208,5.286,7.112,8.475,10.288s6.116,7.349,5.346,11.77a44.372,44.372,0,0,0-1.067,4.551c-.142,2.548,1.4,4.919,3.283,6.649a16.914,16.914,0,0,0,12.1,4.374c1.92-.095,3.817-.522,5.749-.462a6.353,6.353,0,0,1,5.073,2.264c1.019,1.446,1.185,3.5,2.489,4.634a6.14,6.14,0,0,0,2.987,1.1c1.28.237,2.892.32,3.556-.806a2.8,2.8,0,0,0,.284-1.47,5.761,5.761,0,0,1-2.868-1.138Z" transform="translate(-5.449 -294.508)" opacity="0.1"/>
    </g>
    <g id="Group_1000" data-name="Group 1000" transform="translate(1079.227 725.772)">
      <path id="Path_978" data-name="Path 978" d="M589.225,736.092l-26-37.7s-.486-9.34-2.193-11.521-.367-7.029-.367-7.029,1.825-2.667.249-2.916-.249-6.187-.249-6.187l-.119-9.482s1.458-9.1.249-11.284a3.556,3.556,0,0,1,.118-3.876s1.458-5.215,0-6.555-1.1-9.482-.735-15.883-2.548-10.063-2.548-11.035-9.6-10.419-9.6-11.272-6.08-4.362-9.731-5.334-5.464-1.695-5.346-2.181-5.713-2.371-5.713-2.371-5.1-.367-7.052-2.9-7.882-3.3-8.06-3.307l-.107-.51-.107-.545c.45-.77.877-1.565,1.268-2.371.119-.249.225-.486.332-.735a10.406,10.406,0,0,0,5.986-1.861,8.119,8.119,0,0,0,2.9-5.82,12.837,12.837,0,0,0-1.411-6.46c-1.067-2.181-2.631-4.445-2.1-6.815.237-1.019.853-1.92,1.185-2.916a7.7,7.7,0,0,0-.877-5.748c-.913-1.754-2.193-3.307-3.224-5.014a19.462,19.462,0,0,1-2.56-7.112,10.952,10.952,0,0,0-.948-3.864,7.4,7.4,0,0,0-2.133-2.157,21.335,21.335,0,0,0-13.038-3.959c-3.307.119-6.614,1.007-9.9.6a36.266,36.266,0,0,1-5.772-1.505c-4.077-1.185-8.783-1.707-12.327.628s-4.966,6.922-7.372,10.513c-2.133,3.165-5.239,5.832-6.863,9.2v-.2a11.687,11.687,0,0,0-.9,2.454,17.47,17.47,0,0,0,.533,8.036,5.594,5.594,0,0,0,1.968,3.556c1.185.77,2.845.593,4.255.842-.059.225-.119.462-.166.687a27.26,27.26,0,0,0-.6,5.772,27.783,27.783,0,0,0,19.841,26.633v.735a19.4,19.4,0,0,1-.119,2.086h0s-12.22-2.513-15.492-.806-9.731,3.022-10.667,3.994-3.4.249-5.594,5.926-2.43,11.521-5.215,14.223-4.255,4.492-4.386,6.436.367,2.371-.723,3.022-2.679,3.153-2.193,4.125a3.437,3.437,0,0,1-1.339,3.639,4.042,4.042,0,0,0-1.695,3.639s-.735,2.667-2.43,3.271-2.8,4.611-2.8,4.611l-5.512,6.341L410.9,645.738a4.611,4.611,0,0,0-6.5-.332l-5.381,4.777a10.6,10.6,0,0,0-5.369,3.2,13.926,13.926,0,0,0-2.774,4.137l-2.939,2.643a7.443,7.443,0,0,0-.759,8.238l7.005,7.74v.071a12.244,12.244,0,0,0-6.768,2.75c-10.442,9.221-10.573,17.708-8.984,21.584s14.828,18.8,14.828,18.8,7.692,10,18.8,15.326h0l-.083.083c-.225.237-.439.486-.652.759l-.178.237a1.689,1.689,0,0,0-.166.237l-.2.284-.154.237-.213.356-.13.225-.249.474s-.059.107-.083.154-.2.439-.3.664l-.107.249a1.327,1.327,0,0,1-.19.474l-.107.32a2,2,0,0,1-.154.474l-.107.344q-.071.249-.142.533a1.589,1.589,0,0,1-.083.32c-.024.107-.13.581-.19.877a2.962,2.962,0,0,0,0,.344,5.34,5.34,0,0,0-.107.628,1.152,1.152,0,0,1-.059.439,2.867,2.867,0,0,0-.083.6,2.991,2.991,0,0,0,0,.462v2.3c-.249,14.223.581,16.25.581,16.25a7.87,7.87,0,0,0,6.448,4.836,8.5,8.5,0,0,0,2.086-.107c6.317-1.1,21.145-3.639,26.372-2.667,3.141.581,8.961-.284,13.1-1.067l1.09-.213.759,2.371,2.371-.664,2.039,1.185,1.292.735c2.371,8.131,12.137,5.357,12.137,5.357l2.311,1.339,23.457.6a47.15,47.15,0,0,0,8.3,3.983,7.459,7.459,0,0,0,1.185.261,52.618,52.618,0,0,0,6.531.118c1.8,0,3.188-.118,3.188-.118s-.237-6.365-.581-13.5a191.335,191.335,0,0,0,21.726-1.778c12.528-2.2,17.779-13.6,19.676-19.675a55.587,55.587,0,0,1,1.185,7.55,55.056,55.056,0,0,0,1.944,6.543,21.866,21.866,0,0,0,2.679,4.86c9.233-3.153,3.639-7.882,1.695-9.945s1.339-3.757,1.339-3.757,2.56-1.707,2.371-3.283-.367-3.271,7.906-3.153S589.225,736.092,589.225,736.092ZM460.884,658.67c.107.7,1.256,8.167,2.3,10.134a12.919,12.919,0,0,1,.273,3.994c-4.9-.391-9.992-.6-9.992-.6a1.185,1.185,0,0,1,.261.628l-.77-.178-1.126-.273,9.032-13.714ZM443.01,687.116l8.475,1.351.711.107a30.265,30.265,0,0,0-.439,4.006c0,.118.19.273.462.45a12.73,12.73,0,0,0-.166,2c.142.676,4.1,2.122,8.653,3.331-.071.237-.13.474-.19.688h0c-4.018-2.11-10.336-3.094-11.07-4.658S427.21,685.3,427.21,685.3s-.794-.415-2.145-1.067l5.666,1.067,1.553-.154A84.724,84.724,0,0,0,443.01,687.1Z" transform="translate(-327.655 -527.461)" fill="url(#linear-gradient-3)"/>
      <path id="Path_979" data-name="Path 979" d="M556.756,715.053s-3.378,20.363-20.482,23.374-74.2,2.371-74.2,2.371-32.643-4.741-44.448-32.275-19.4-38.557-9.281-39.031,64.692,18.431,67.821,18.668S559.766,646.272,556.756,715.053Z" transform="translate(-322.85 -501.148)" fill="#65617d"/>
      <path id="Path_980" data-name="Path 980" d="M556.756,715.053s-3.378,20.363-20.482,23.374-74.2,2.371-74.2,2.371-32.643-4.741-44.448-32.275-19.4-38.557-9.281-39.031,64.692,18.431,67.821,18.668S559.766,646.272,556.756,715.053Z" transform="translate(-322.85 -501.148)" opacity="0.05"/>
      <path id="Path_981" data-name="Path 981" d="M403.723,731.817a7.811,7.811,0,0,0,6.365,4.86,8.289,8.289,0,0,0,2.062-.119c6.258-1.078,20.956-3.556,26.135-2.643,3.117.581,8.89-.285,13.038-1.055,2.726-.51,4.741-1,4.741-1s-4.812-16.025-5.417-16.5-21.726-13.18-21.726-13.18L412.222,701h0a8.783,8.783,0,0,0-5.654,3.331c-1.766,2.133-3.283,5.63-3.378,11.367C402.894,729.814,403.723,731.817,403.723,731.817Z" transform="translate(-322.943 -495.309)" fill="#3f3d56"/>
      <path id="Path_982" data-name="Path 982" d="M403.72,731.817a7.811,7.811,0,0,0,6.365,4.86,68.334,68.334,0,0,1-4.528-6.614l.083-11.687A20.6,20.6,0,0,1,412.219,701h0s-8.795.6-9.032,14.7S403.72,731.817,403.72,731.817Z" transform="translate(-322.94 -495.309)" opacity="0.05"/>
      <path id="Path_983" data-name="Path 983" d="M466.247,711.2l15.539-12.161,24.452-24.1-6.626-.3c-1,.628-3.769,2.62-3.876,5.037-.119,2.939-6.6.2-9.98,1.885s-19.877,22.8-22.745,22.674-5.18-1.47-6.377.581a1.182,1.182,0,0,1-.095.13Z" transform="translate(-313.047 -500.191)" opacity="0.1"/>
      <path id="Path_984" data-name="Path 984" d="M406,704.354l1.683.771c11.853,5.061,26.372,15.657,27.463,17.589.664,1.185,9.115,6.306,15.634,10.146,2.726-.51,4.741-1,4.741-1s-4.812-16.025-5.417-16.5-21.714-13.18-21.714-13.18L411.689,701h0A8.783,8.783,0,0,0,406,704.354Z" transform="translate(-322.41 -495.309)" opacity="0.1"/>
      <path id="Path_985" data-name="Path 985" d="M378.455,678.505c1.565,3.852,14.7,18.668,14.7,18.668s8.3,10.845,20.15,15.906,26.384,15.657,27.463,17.589c.7,1.185,10.11,6.9,16.736,10.8l1.493.865,3.283,1.908,1.742,1s4.03-3.236,8.048-6.5,7.918-6.448,7.977-6.626c.119-.367,1.683-4.457,1.316-4.741-.19-.118-1.008-1.79-2.536-3.722a17.081,17.081,0,0,0-6.128-5.073,17.4,17.4,0,0,1-7.953-8.3s-.533-.379-1.328-.889A16.119,16.119,0,0,0,458,707.023c-2.655-.332-7.586-5.749-7.586-5.749a14.852,14.852,0,0,1-4.741-4.943c-1.268-2.643-19.948-15.408-21.679-16.594l45.325,29.027,10.845,6.958L495.7,703.562l24.452-24.1-8.072-.356c-11.853-.521-32.986-1.328-35.653-.723a20.148,20.148,0,0,1-6.626.427s-6.021.273-9.992-1.825-10.253-3.082-10.976-4.634-22.046-9.032-22.046-9.032-29.027-15.409-39.387-6.258S376.867,674.653,378.455,678.505Z" transform="translate(-327.65 -503.987)" fill="#65617d"/>
      <path id="Path_986" data-name="Path 986" d="M457.31,605.689l3.734,12.41,4.812,27.949,17.708,1.185,5.132-8.51,5.109-8.475s3.188-11.3,5.488-22.224c2.027-9.66,3.342-19.047,1.185-20.067-1.956-.9-3.236-4.16-4.077-7.657-.107-.427-.2-.865-.284-1.3a68.18,68.18,0,0,1-1.185-8.984S457.82,568.08,463,583.382a24.156,24.156,0,0,1,1.4,8.131,19.355,19.355,0,0,1-.119,2.074A17.341,17.341,0,0,1,457.31,605.689Z" transform="translate(-312.904 -519.592)" fill="#feb23e"/>
      <path id="Path_987" data-name="Path 987" d="M450.8,599.934l1.328,21.086,3.011,17.945,3.378,8.3,3.011,45.467s29.039,3.366,36.1,0a3.093,3.093,0,0,0,1.28-1c8.534-12.884,5.737-50.2,5.737-50.2L507.93,617.4l-2.169-12.5-5.239-.557-4.042-.427s-.913,1.114-2.216,2.856c-3.556,4.741-10.146,13.986-9.707,17.862.6,5.3-.723,10.667-2.774,11.556s-3.734,2.3-4.089.853a6.519,6.519,0,0,1-.367-3.852c.367-2.05-1.565-8.3-1.565-8.3s-3.248-7.349-3.011-10.478-.356-6.744-1.328-7.586-2.288-1.695-1.185-5.547S465.5,589.93,465.5,589.93Z" transform="translate(-314.11 -515.887)" fill="#e3e8f4"/>
      <path id="Path_988" data-name="Path 988" d="M483.178,654.7l1.185,36.021,6.958,3.864a3.01,3.01,0,0,0,1.28-1.007c8.534-12.884,5.737-50.2,5.737-50.2l3.248-24.1-2.169-12.5-5.239-.557c2.027-9.66,3.354-19.035,1.185-20.055-1.956-.913-3.248-4.16-4.077-7.657h0l-3.769,25.471s.32,2.288.427,4.658a13.194,13.194,0,0,1-.308,4.492c-.841,2.169-.237,6.021-.237,6.021-2.169,3.828-3.259,10.916-3.781,17.779C482.905,646.035,483.178,654.7,483.178,654.7Z" transform="translate(-308.121 -518.003)" opacity="0.1"/>
      <path id="Path_989" data-name="Path 989" d="M491.29,578s6.069.759,7.989,3.283,6.993,2.892,6.993,2.892,5.784,1.932,5.654,2.371,1.695,1.185,5.31,2.169,9.636,4.457,9.636,5.31,9.482,10.229,9.482,11.2,2.88,4.575,2.525,10.964-.723,14.448.723,15.776,0,6.507,0,6.507a3.556,3.556,0,0,0-.118,3.852c1.185,2.169-.249,11.2-.249,11.2l.13,9.4s-1.328,5.926.237,6.14-.237,2.892-.237,2.892-1.328,4.824.356,6.993,2.169,11.438,2.169,11.438l25.78,37.466s.356,6.863-7.835,6.744-8.072,1.565-7.823,3.129-2.288,3.26-2.288,3.26-3.26,1.683-1.328,3.734,7.467,6.744-1.683,9.873a21.791,21.791,0,0,1-2.655-4.812,56.122,56.122,0,0,1-1.932-6.507s-.842-9.162-2.525-10.359-1.446-6.993-1.446-6.993,2.371-4.741-.96-6.626-52.282-29.027-52.282-29.027l-1.185-36.021s-.841-26.621,4.22-35.558c0,0-.6-3.852.237-6.021s-.119-9.162-.119-9.162Z" transform="translate(-308.019 -518.097)" fill="#3f3d56"/>
      <path id="Path_990" data-name="Path 990" d="M470.346,590.439s-12.114-2.5-15.409-.818-9.636,3.011-10.6,3.982-3.378.237-5.547,5.926-2.371,11.438-5.18,14.093-4.22,4.457-4.338,6.377.367,2.371-.723,3.011-2.643,3.141-2.169,4.1,25.057,22.165,25.057,22.165,1.185,8.072,2.288,10.122-1.185,30.236-3.615,32.156,16.309,1.742,16.309,1.742.853-18.49,1.576-19.462-.486-20.719-.486-20.719-.119-16.866,1.446-21.335,1.387-19.273,1.387-19.273,1.387-8.89,3.07-10.964S470.346,590.439,470.346,590.439Z" transform="translate(-318.65 -516.052)" opacity="0.1"/>
      <path id="Path_991" data-name="Path 991" d="M470.044,590.127s-12.114-2.489-15.409-.806-9.636,3.011-10.6,3.971-3.378.249-5.535,5.926-2.371,11.45-5.18,14.093-4.22,4.457-4.338,6.389.356,2.371-.723,3.011-2.655,3.129-2.169,4.1,25.057,22.165,25.057,22.165,1.185,8.072,2.288,10.11-1.185,30.236-3.615,32.168S466.085,693,466.085,693s.842-18.49,1.565-19.45-.486-20.719-.486-20.719-.119-16.866,1.446-21.335,1.4-19.273,1.4-19.273,1.375-8.89,3.058-10.964S470.044,590.127,470.044,590.127Z" transform="translate(-318.704 -516.108)" fill="#3f3d56"/>
      <path id="Path_992" data-name="Path 992" d="M462.158,583.4a24.155,24.155,0,0,1,1.4,8.131,27.593,27.593,0,0,0,31.694-12.516,68.179,68.179,0,0,1-1.185-8.984S456.978,568.1,462.158,583.4Z" transform="translate(-312.098 -519.588)" opacity="0.1"/>
      <path id="Path_993" data-name="Path 993" d="M446.64,569.551a27.522,27.522,0,1,0,.593-5.737A27.522,27.522,0,0,0,446.64,569.551Z" transform="translate(-314.881 -524.773)" fill="#feb23e"/>
      <path id="Path_994" data-name="Path 994" d="M435.478,619.11l-6.626,2.05a3.414,3.414,0,0,1-1.327,3.556,4.018,4.018,0,0,0-1.683,3.556s-.723,2.655-2.371,3.259-2.762,4.575-2.762,4.575l-5.547,6.389s-2.051,1.683-1.683,2.525-2.169,1.079-2.169,1.079l1.328,21.453,11.438,2.157,7.112-.723,5.784-2.157,5.061-3.022,2.288-5.926,10.11-15.409Z" transform="translate(-321.427 -510.481)" fill="#3f3d56"/>
      <path id="Path_995" data-name="Path 995" d="M417.307,645.455s-14.7-21.2-25.661-9.755,4.457,29.987,8.072,29.383,20.849-1.565,20.849-1.565Z" transform="translate(-325.788 -508.035)" fill="#dd9a34"/>
      <path id="Path_996" data-name="Path 996" d="M447.14,563.808a3.343,3.343,0,0,1,2.027.913c.925.984.972,2.726,2.193,3.343a2.56,2.56,0,0,0,1.434.166c3.2-.462,5.049-4.077,8.131-5.073a8.3,8.3,0,0,1,5.393.462A4.1,4.1,0,0,1,468.1,564.8c1.031,1.339.308,3.3.782,4.907.664,2.24,3.331,3.129,5.654,3.414s4.919.462,6.46,2.2a5.926,5.926,0,0,1,1.185,4.658,3.72,3.72,0,0,0,0,1.73c.64,1.8,3.769,1.541,4.587.107.593-1.031.415-1.9,1.813-2.181a5.927,5.927,0,0,1,2.951.51,21.467,21.467,0,0,0,7.633,1.185A27.593,27.593,0,1,0,447.2,563.868Z" transform="translate(-314.788 -524.766)" opacity="0.1"/>
      <path id="Path_997" data-name="Path 997" d="M483.178,583.269a3.721,3.721,0,0,1,0-1.731,5.926,5.926,0,0,0-1.185-4.658c-1.541-1.742-4.148-1.908-6.46-2.2s-4.99-1.185-5.654-3.414c-.474-1.612.249-3.556-.782-4.907a3.971,3.971,0,0,0-1.778-1.185,8.3,8.3,0,0,0-5.393-.474c-3.082,1-4.931,4.611-8.131,5.073a2.573,2.573,0,0,1-1.434-.166c-1.185-.616-1.268-2.371-2.193-3.342-1.47-1.553-4.243-.557-6.033-1.707A5.488,5.488,0,0,1,442.191,561a17.27,17.27,0,0,1-.533-7.989c1.043-4.48,5.049-7.55,7.609-11.379,2.371-3.556,3.722-8.072,7.3-10.442s8.178-1.825,12.22-.628a34.2,34.2,0,0,0,5.725,1.505c3.248.4,6.519-.486,9.8-.593a21,21,0,0,1,12.943,3.935,7.111,7.111,0,0,1,2.11,2.134,10.763,10.763,0,0,1,.948,3.84,19.485,19.485,0,0,0,2.536,7.041c1.019,1.695,2.288,3.236,3.2,4.99a7.621,7.621,0,0,1,.865,5.7c-.308,1-.913,1.885-1.185,2.9-.533,2.371,1.019,4.6,2.074,6.768a12.777,12.777,0,0,1,1.41,6.424,8.107,8.107,0,0,1-2.892,5.772,10.334,10.334,0,0,1-6.1,1.849,21.725,21.725,0,0,1-7.787-1.185,5.928,5.928,0,0,0-2.939-.51c-1.41.284-1.185,1.185-1.825,2.181C486.947,584.81,483.818,585.071,483.178,583.269Z" transform="translate(-315.849 -527.076)" fill="#3f3d56"/>
      <path id="Path_998" data-name="Path 998" d="M465.812,711.823l15.539-12.161,24.452-24.1-8.072-.356a5.262,5.262,0,0,0-1.707,3.283c-.119,2.951-6.6.213-9.98,1.9s-19.877,22.8-22.745,22.662-5.18-1.458-6.377.581l-.095.142a3.426,3.426,0,0,1-1.837,1.091Z" transform="translate(-313.334 -500.087)" opacity="0.1"/>
      <path id="Path_999" data-name="Path 999" d="M437.69,712.3l7.811,24.891,1.185,3.911,3.722-1.019,8.2-2.252L495.117,727.8a31.671,31.671,0,0,0,13.145-3.556,39.742,39.742,0,0,1,22.686-4.954c4.824.45,10.193-1.624,14.65-9.861,0,0,10.11-29.869-15.409-38.415s-26.763,4.54-26.763,4.54l-.344.213c-1,.628-3.769,2.619-3.876,5.037-.119,2.939-6.6.2-9.98,1.885s-19.853,22.9-22.722,22.769-5.18-1.47-6.377.581a1.182,1.182,0,0,1-.095.13c-.889,1.185-3.556,1.517-5.346,1.565h-1.671l-.225.071-1.849.545Z" transform="translate(-316.539 -501.401)" fill="#65617d"/>
      <path id="Path_1000" data-name="Path 1000" d="M439.4,666.993l3.757.6,1.565-15.539s-1.719-.261-3.876-.759C441.415,653.457,440.111,661.849,439.4,666.993Z" transform="translate(-316.222 -504.517)" opacity="0.1"/>
      <path id="Path_1001" data-name="Path 1001" d="M537.816,603.339s11.2-3.248,8.439,28.553-23.492,51.915-23.492,51.915-23.86,10.478-34.574,8.795-18.526-2.051-18.526-2.051a27.414,27.414,0,0,0-10.845-2.892c-6.021-.237-18.668-3.971-18.964-5.18s3.141-18.905,1.695-20.233c0,0,16.866.688,18.549,1.908s4.089.344,5.926,0,7.349-5.156,18.313-.948c0,0,3.734.367,5.18-.6a5.191,5.191,0,0,1,3.769-.237,10.357,10.357,0,0,0,2.608-1.328c.367-.474,3.26,0,3.26,0a1.28,1.28,0,0,0,1.8-.842,7.894,7.894,0,0,1,1.683-2.643s3.26-18.312,9.4-25.175a3.935,3.935,0,0,0,1.328-3.5C512.878,626.949,523.355,599.451,537.816,603.339Z" transform="translate(-316.142 -513.472)" opacity="0.1"/>
      <path id="Path_1002" data-name="Path 1002" d="M448.85,702.143,464.756,721.4l.107-.118c.119-.356,1.683-4.457,1.316-4.741s-3.129-6.27-8.676-8.795a16.51,16.51,0,0,1-6.8-6.2Z" transform="translate(-314.471 -495.207)" opacity="0.1"/>
      <path id="Path_1003" data-name="Path 1003" d="M449.054,733.49l1.742,1s4.03-3.236,8.048-6.5,7.918-6.448,7.977-6.626c.119-.367,1.683-4.457,1.316-4.741-.19-.118-1.008-1.79-2.536-3.722-10.786-3.022-3.911,4.469-3,4.812,0,0-13.133-3.01-13.856,11.284A17.069,17.069,0,0,0,449.054,733.49Z" transform="translate(-314.497 -493.236)" opacity="0.1"/>
      <path id="Path_1004" data-name="Path 1004" d="M462.209,739.542l2.3,1.327,23.243.6a46.948,46.948,0,0,0,8.226,3.959,7.633,7.633,0,0,0,1.185.261,54.2,54.2,0,0,0,6.483.118c1.778,0,3.153-.118,3.153-.118s-1.1-29.324-1.932-32.405c-.391-1.482-2.371-1.185-4.267-.415a27.506,27.506,0,0,0-4.16,2.11s-9.873.948-11.45,1.8-6.021-.486-8.795,0-7.7-3.259-7.7-3.259c-13.488-4.457-5.926,3.852-4.943,4.22,0,0-13.121-3.011-13.844,11.284S462.209,739.542,462.209,739.542Z" transform="translate(-314.318 -493.231)" fill="#3f3d56"/>
      <path id="Path_1005" data-name="Path 1005" d="M488.612,728.219c.249,6.069,4.978,13.607,7.811,17.589,1.778,0,3.153-.118,3.153-.118s-1.1-29.324-1.932-32.405c-.391-1.482-2.371-1.185-4.267-.415C491.042,717.243,488.41,723.324,488.612,728.219Z" transform="translate(-307.107 -493.228)" fill="#565387"/>
      <path id="Path_1006" data-name="Path 1006" d="M488.612,728.219c.249,6.069,4.978,13.607,7.811,17.589,1.778,0,3.153-.118,3.153-.118s-1.1-29.324-1.932-32.405c-.391-1.482-2.371-1.185-4.267-.415C491.042,717.243,488.41,723.324,488.612,728.219Z" transform="translate(-307.107 -493.228)" opacity="0.1"/>
      <path id="Path_1007" data-name="Path 1007" d="M485.321,729.025c1.6,5.855,1.576,12.434,4.125,16.4a7.631,7.631,0,0,0,1.185.261,54.2,54.2,0,0,0,6.484.118c1.778,0,3.153-.118,3.153-.118s-1.1-29.324-1.932-32.405c-.391-1.482-2.371-1.185-4.267-.415a27.506,27.506,0,0,0-4.16,2.11S483.271,721.522,485.321,729.025Z" transform="translate(-307.787 -493.228)" opacity="0.05"/>
      <path id="Path_1008" data-name="Path 1008" d="M417.59,676.26s11.545,3.745,21.335,17.056Z" transform="translate(-320.263 -499.892)" opacity="0.1"/>
      <g id="Group_993" data-name="Group 993" transform="translate(125.587 23.598)" opacity="0.1">
        <path id="Path_1009" data-name="Path 1009" d="M496.834,554.3l-.071.261a8.1,8.1,0,0,1-.4,1.007A7.121,7.121,0,0,1,496.834,554.3Z" transform="translate(-431.257 -546.086)"/>
        <path id="Path_1010" data-name="Path 1010" d="M441.678,549.741a10.832,10.832,0,0,1,.889-2.371c-.059.2-.119.415-.166.628a17.282,17.282,0,0,0,.533,7.989,5.488,5.488,0,0,0,1.944,3.556c1.79,1.185,4.563.154,6.021,1.695.936.984.984,2.738,2.193,3.342a2.371,2.371,0,0,0,1.446.166c3.2-.45,5.049-4.066,8.131-5.061a8.131,8.131,0,0,1,5.381.462,3.97,3.97,0,0,1,1.79,1.185c1.031,1.328.308,3.3.782,4.907.664,2.228,3.331,3.117,5.642,3.414s4.919.45,6.472,2.2a5.832,5.832,0,0,1,1.185,4.658,3.828,3.828,0,0,0,0,1.719c.64,1.813,3.769,1.541,4.587.119.593-1.043.415-1.9,1.813-2.193a6.045,6.045,0,0,1,2.951.51,21.7,21.7,0,0,0,7.787,1.185,10.5,10.5,0,0,0,6.1-1.849,7.291,7.291,0,0,0,1.873-2.287,7.7,7.7,0,0,1-2.6,4.089,10.335,10.335,0,0,1-6.1,1.849,21.69,21.69,0,0,1-7.787-1.185,5.926,5.926,0,0,0-2.951-.51c-1.4.284-1.185,1.185-1.813,2.181-.818,1.434-3.947,1.695-4.587-.107a3.876,3.876,0,0,1,0-1.731,5.832,5.832,0,0,0-1.185-4.658c-1.553-1.742-4.148-1.908-6.472-2.2s-4.978-1.185-5.642-3.414c-.474-1.612.249-3.556-.782-4.907a3.972,3.972,0,0,0-1.778-1.185,8.3,8.3,0,0,0-5.393-.474c-3.082,1-4.931,4.611-8.131,5.073a2.607,2.607,0,0,1-1.446-.166c-1.185-.616-1.256-2.371-2.193-3.343-1.458-1.553-4.231-.557-6.021-1.707a5.488,5.488,0,0,1-1.944-3.556,17.269,17.269,0,0,1-.533-8.024Z" transform="translate(-441.433 -547.37)"/>
      </g>
      <g id="Group_1009" data-name="Group 1009" transform="matrix(0.883, -0.469, 0.469, 0.883, -1582.325, 521.728)">
        <g id="Group_1005-2" data-name="Group 1005" transform="translate(1537.312 363.76)">
          <rect id="Rectangle_740-2" data-name="Rectangle 740" width="185" height="83" rx="20" transform="translate(9 7.894)" fill="#f7f7f7"/>
          <path id="Rectangle_741-2" data-name="Rectangle 741" d="M0,0H185a0,0,0,0,1,0,0V5a20,20,0,0,1-20,20H20A20,20,0,0,1,0,5V0A0,0,0,0,1,0,0Z" transform="translate(9 65.894)" fill="#2ac1aa"/>
          <path id="Rectangle_742-2" data-name="Rectangle 742" d="M20,0H68a0,0,0,0,1,0,0V47A20,20,0,0,1,48,67H0a0,0,0,0,1,0,0V20A20,20,0,0,1,20,0Z" transform="translate(0 -0.106)" fill="#a7e1b6"/>
          <rect id="Rectangle_743-2" data-name="Rectangle 743" width="96" height="6" transform="translate(84 27.894)" fill="#a7e1b6"/>
          <rect id="Rectangle_744-2" data-name="Rectangle 744" width="96" height="6" transform="translate(84 37.894)" fill="#d5e8da"/>
          <rect id="Rectangle_745-2" data-name="Rectangle 745" width="96" height="7" transform="translate(84 47.894)" fill="#d5e8da"/>
        </g>
        <g id="Mask_Group_74-2" data-name="Mask Group 74" transform="translate(1547.005 369.791)" clip-path="url(#clip-path-2)">
          <path id="Path_1119-2" data-name="Path 1119" d="M22.9,0A22.9,22.9,0,1,1,0,22.9,22.9,22.9,0,0,1,22.9,0Z" transform="translate(-0.334 0.414)" fill="#a7e1b6"/>
          <ellipse id="Ellipse_121-2" data-name="Ellipse 121" cx="10.5" cy="11" rx="10.5" ry="11" transform="translate(12.306 8.864)" fill="#fff"/>
          <ellipse id="Ellipse_122-2" data-name="Ellipse 122" cx="16.5" cy="11" rx="16.5" ry="11" transform="translate(5.306 35.864)" fill="#fff"/>
        </g>
      </g>
      <path id="Path_1011" data-name="Path 1011" d="M499.835,631.623c-2.2,2.975-4.741,5.737-6.673,8.89a16.866,16.866,0,0,0-2.928,10.513c2.015-2.074,2.94-4.943,4.22-7.538,2.157-4.409,5.381-8.143,8.1-12.185.522-.77,3.852-5.239,2.169-5.452C503.332,625.673,500.629,630.6,499.835,631.623Z" transform="translate(-306.809 -509.233)" opacity="0.1"/>
      <path id="Path_1015" data-name="Path 1015" d="M404.66,648.328c-.119,15.894,32.773,19.273,32.773,19.273l8.4,1.328,3.757.6,1.565-15.539s-1.719-.261-3.876-.759c-3.177-.747-7.3-2.027-8.167-3.828C437.67,646.4,404.779,632.422,404.66,648.328Z" transform="translate(-322.659 -506.452)" fill="#feb23e"/>
      <path id="Path_1016" data-name="Path 1016" d="M537.569,601.277s11.2-3.248,8.439,28.553-23.492,51.915-23.492,51.915-23.86,10.478-34.574,8.795-18.55-2.05-18.55-2.05a27.415,27.415,0,0,0-10.845-2.892c-6.021-.237-18.668-3.971-18.964-5.18s3.141-18.964,1.695-20.233c0,0,16.866.688,18.55,1.908s4.089.344,5.926,0,7.349-5.168,18.313-.948c0,0,3.734.367,5.18-.6a5.191,5.191,0,0,1,3.769-.237,10.358,10.358,0,0,0,2.608-1.328c.367-.474,3.259,0,3.259,0a1.268,1.268,0,0,0,1.8-.842,8.012,8.012,0,0,1,1.683-2.655s3.26-18.3,9.4-25.175a3.9,3.9,0,0,0,1.327-3.485C512.631,624.888,523.121,597.46,537.569,601.277Z" transform="translate(-316.192 -513.852)" fill="#3f3d56"/>
    </g>
    <g id="Group_1002" data-name="Group 1002" transform="translate(1216.496 411.24)">
      <path id="Path_1017" data-name="Path 1017" d="M944.73,269.964V336.34c0,1.979-3.7,3.556-8.3,3.556H761.3c-4.575,0-8.3-1.6-8.3-3.556V269.964c0-1.979,3.7-3.994,8.3-3.994h175.16C941.032,266.006,944.73,267.985,944.73,269.964Z" transform="translate(-732.518 -265.97)" fill="#fff"/>
      <path id="Path_1022" data-name="Path 1022" d="M1003.092,806.171c-1.636-5.926-2.7-11.118-2.7-11.118s.071-6.507-3.034-11.272l-.059-1.624h0l-.474-12.042a40.557,40.557,0,0,1,2.8-6.4c2.015-3.852-.676-17.6-.676-17.6s-8.771-19.19-7.289-31.623-18.573-54.274-18.573-54.274a54.519,54.519,0,0,1,1.268-12.185,9.7,9.7,0,0,0,.13-2.56,2.7,2.7,0,0,0,0-.308v.095c-.593-8.143-7.621-23.172-7.621-23.172l-.261-29.17s3.461-17.341-4.148-40.133c-2.655-7.953-4.4-14.342-5.535-19.273-.13-.557-.261-1.091-.367-1.612,13.737-2.631,24.215-4.741,24.215-4.741s-9.293-33.188-14.934-38.877-10.667-23.931-10.667-23.931-3.722-23.575.557-30.663,4.445-19.154,4.445-19.154,10.1-7.953,11.272-11.355,3.046-11.035,2.892-15.006-1.588-7.5-1.185-9.613-3.425-9.944-1.837-13.785a10.221,10.221,0,0,0,.557-3.662v-.154a51.126,51.126,0,0,0-1.292-9.79,27.9,27.9,0,0,0-10.5-5.109l-.261-.889-.676-2.371c-.356-.213-.7-.4-1.043-.569v-.853l-.225-3.4,1.328-7.716c2.691-13.429-15.148-14.733-15.148-14.733a9.268,9.268,0,0,0-5.192-4.208c-3.627-1.185.166,20.043,1.9,21.335,1.292.972,5.429,7.491,7.42,10.667h0l.332.522a8.088,8.088,0,0,0-.782.889l.853,4.587.13.711a18.582,18.582,0,0,0-2.643,4.931s3.378,3.437,2.88,7.444,1.339,8.913,1.434,9.174c-.2-.213-2.584-2.6-4.836-1.9s-8.57,2.845-8.57,2.845-4.741,1.019-4.255,2.051-3.022,5.784-3.022,5.784l-13.275-11.639c-.142-.356-.284-.711-.415-1.079a30.372,30.372,0,0,1-1.316-5.274,28.838,28.838,0,0,0,4.042-1.458,8.854,8.854,0,0,0,3.461-2.371c1.185-1.576,1.4-3.674,1.849-5.594.865-3.769,2.916-7.171,4.338-10.774a34.457,34.457,0,0,0,1.742-19.035,12.635,12.635,0,0,0-2.181-5.488c-2.2-2.8-6.033-3.828-8.878-6.009s-4.741-5.618-8.036-7.218c-2.963-1.446-6.5-1.185-9.743-.462a52,52,0,0,0-17.9,7.289c-1.814,1.185-3.817,2.536-5.926,2.228-1.849-.261-3.248-1.683-4.492-3.046a.983.983,0,0,1,0-.178l-.154-.154a22.628,22.628,0,0,0-1.612,9.648,6.656,6.656,0,0,0,.118,1.529v.533a2.852,2.852,0,0,1,0,.45h0a2.711,2.711,0,0,1-.071.687,4.931,4.931,0,0,1-1.185,1.766,10.662,10.662,0,0,0-1,1.47,1.815,1.815,0,0,1,.154-.533,7.491,7.491,0,0,0-1.185,4.089,4.029,4.029,0,0,0,1.067,2.856,13.93,13.93,0,0,0,2.157,1.6,23.152,23.152,0,0,0-.225,4.267A24.784,24.784,0,0,0,883.9,359.121c.166.356.32.711.486,1.079,1.8,4.243,3.224,9.21,2.857,13.868a7.259,7.259,0,0,1-.119,1.019c-.047.332-.308.367-.439.557h0s-21.133,1.019-26.278-3.3-12.137,11.485-12.137,11.485-7.515,1.766-9.091.356-10.407.19-10.407.19a19.059,19.059,0,0,0-13.382-4.314,39.222,39.222,0,0,0-9.909-5.014h0l-.249-.071h0a10.881,10.881,0,0,0-4.741-.427s-10.727-8.19-13.939-12.682-18.3-21.039-18.372-21.122l-.083-.818-.261-2.489a8.945,8.945,0,0,1-1.292.166l-.32-.853a45.631,45.631,0,0,0-3.343-6.922s-.118-3.153.771-3.971-.853-12.3-.853-12.3-10.205-21.536-17.969-4.86c0,0-15.409,11.189-1.671,22.982,0,0,5.417,2.371,6.246,4.386.545,1.3,2.489,4.931,3.793,7.337.213.4.415.759.581,1.079l-.142.13.273,2.051.107.794c-2.442,1.517-4.089,3-3.639,4.054a22.91,22.91,0,0,1,1.731,5.594s19.3,22.342,22.058,32.109c0,0,50.493,27.439,66.814,28.909l-2.134,14.745a116.889,116.889,0,0,0-.19,11.971c.332,3.141-1.28,17.471-1.28,17.471s-2.015,21.062-4.279,24.1-1.363,15.575-1.363,15.575a105.9,105.9,0,0,1-2.56,17.945c-2.074,8.048,0,17.838,0,17.838s-7.5,19.178,11.711,5.63c0,0,9.648-.972,20.766-1.778v1.114c0,1.434.071,2.987.118,4.623.261,10.81.77,25.7,1.695,36.945,1.647,19.877,9.221,58.991,9.221,58.991l.759,19.794a27.194,27.194,0,0,0-.344,5.677,36.744,36.744,0,0,0,6.045,19.664l2.027,13.133s3.888,8.569,4.16,13.761a7.117,7.117,0,0,1-.107,1.268,8.772,8.772,0,0,0-.095,2.027c0,6,4.2,20.209,4.2,20.209s.77,14.448,2.963,15.207c1.885.64-2.145,8.427-3.354,10.667q-.058-.2-.095-.415c-.154.3-.249.45-.249.45a10.3,10.3,0,0,0-.533,3.686,5.24,5.24,0,0,0,2.6,4.99c4.208,2.371,6.5,4.362,3.046,5.334a36.765,36.765,0,0,0-3.793.96c0-.166-.142-.332-.2-.486a2.371,2.371,0,0,0-1.328,2.584,10.9,10.9,0,0,0,1.482,4.86c3.769,7.621,6.282,10.466,6.282,10.466l1.648-.249a8.628,8.628,0,0,1-.889,1.825,7.029,7.029,0,0,1-2.37,2.264,7.481,7.481,0,0,1-2.916,1.185,8.3,8.3,0,0,0-6.021,3.224c-2.051,2.868-3.26,6.732,1.185,9.909l15.693,4.741s26.764,2.442,25.116-3.485-2.7-11.118-2.7-11.118a23.706,23.706,0,0,0-2.572-10.513,13.011,13.011,0,0,0-1-1.529l.936-.142s1.434-13.275,3.935-15.894c.581-.593.7-1.043.545-1.387.237-.735-.45-1.185-1.339-1.328a1.9,1.9,0,0,1-.166.522,13.285,13.285,0,0,0-2.6-.19s-1.185-6.875,1.588-9.482a2.655,2.655,0,0,0,.462-2.074,11.23,11.23,0,0,0-.4-2.8.728.728,0,0,0-.083.166c-1.671-6.223-6.851-16.013-6.851-16.013s-.45-6.282,1.185-8.854-1.541-34.16-1.541-34.16.071-15.326-2.157-22.366,1.79-15.6,1.79-15.6a2.21,2.21,0,0,0-.071-.462v-.107s-.13-.936-.344-2.371a.783.783,0,0,1,0,.154c-.581-4.03-1.695-11.331-2.37-14.709-1.055-4.741-.853-27.878-.853-27.878l3.556-10,7.586,16.712,8.238,22.354s3.828,4.634,4.1,9.482v.711a13,13,0,0,0,0,1.517,13.487,13.487,0,0,0,2.548,7.965s2.37,10.667,5.5,13.228,3.343,7.846,3.343,7.846,4.279,15.409,6.116,18.028c1.541,2.24,1.861,8.546,1.92,10.478h0v.569s.735,5.523.889,10.182v1.541a16.857,16.857,0,0,1-.308,3.781c0,.071,0,.142,0,.225v-.782a39.845,39.845,0,0,0-.735,9.7c.118,5.583,1.185,12.149,4.741,15.894,6.1,6.483,9.755,5.5,9.755,5.5s-2.489,8.487-5.926,10.3a2.494,2.494,0,0,0-.367.249,3.363,3.363,0,0,0-.095-.474,4.053,4.053,0,0,0-.9,3.153c-.107,3.7,2.454,9.6,4.741,12.268a6.9,6.9,0,0,0,2.987,1.588,5.814,5.814,0,0,1-.521.367,11.2,11.2,0,0,1-1.185.6,5.805,5.805,0,0,1-1.754.522,8.356,8.356,0,0,0-6.021,3.224c-2.039,2.868-3.26,6.72,1.185,9.909l15.693,4.741S1004.787,812.1,1003.092,806.171Z" transform="translate(-735.397 -259.226)" fill="url(#linear-gradient-4)"/>
      <path id="Path_1023" data-name="Path 1023" d="M878.9,743.737,863.7,739c-4.255-3.188-3.082-7.052-1.1-9.921a8,8,0,0,1,5.82-3.212,7.113,7.113,0,0,0,2.821-1.185,6.64,6.64,0,0,0,2.288-2.264,11.094,11.094,0,0,0,1.493-5.855s16.262-5.452,20.956-.806a12.656,12.656,0,0,1,2.11,2.845,24.475,24.475,0,0,1,2.5,10.525s1.043,5.191,2.631,11.118S878.9,743.737,878.9,743.737Z" transform="translate(-712.543 -182.984)" fill="#2d293d"/>
      <path id="Path_1024" data-name="Path 1024" d="M940.537,735.116l-15.183-4.741c-4.267-3.177-3.094-7.041-1.114-9.9a7.917,7.917,0,0,1,5.82-3.212,5.926,5.926,0,0,0,1.695-.533,9.8,9.8,0,0,0,1.185-.6c4.113-2.465,3.781-8.119,3.781-8.119s16.274-5.452,20.956-.806a11.585,11.585,0,0,1,1.659,2.074c3.011,4.741,2.951,11.284,2.951,11.284s1.043,5.215,2.631,11.13S940.537,735.116,940.537,735.116Z" transform="translate(-701.123 -184.568)" fill="#2d293d"/>
      <path id="Path_1025" data-name="Path 1025" d="M893.989,715.793a12.662,12.662,0,0,1,2.11,2.845h0l-24.559,3.8a11.093,11.093,0,0,0,1.493-5.855S889.3,711.147,893.989,715.793Z" transform="translate(-710.556 -182.977)" opacity="0.1"/>
      <path id="Path_1026" data-name="Path 1026" d="M957.822,709.257,958,713.88c-3.556,6.472-22.188,5.8-27.7,2.833a9.8,9.8,0,0,0,1.185-.6c4.113-2.465,3.781-8.119,3.781-8.119s16.274-5.452,20.956-.806A11.6,11.6,0,0,1,957.822,709.257Z" transform="translate(-699.669 -184.572)" opacity="0.1"/>
      <path id="Path_1027" data-name="Path 1027" d="M976.29,729.854a40.672,40.672,0,0,0-2.691,6.4l.628,16.594c-3.923,7.112-25.8,5.618-28.885,1.956s-6.6-13.382-3.307-15.2,5.689-10.288,5.689-10.288-3.556.972-9.482-5.512-4.812-21.43-3.9-25.033-.6-15.515-.6-15.515-.107-8.392-1.885-11.047-5.926-18.028-5.926-18.028-.2-5.239-3.236-7.858-5.334-13.228-5.334-13.228a13.75,13.75,0,0,1-2.442-8.925c.427-5.263-3.983-10.762-3.983-10.762l-8-22.354-7.361-16.724-3.378,10.016s-.166,23.089.865,27.878,2.774,17.518,2.774,17.518-3.876,8.546-1.707,15.6,2.122,22.378,2.122,22.378,3.094,31.564,1.517,34.148-1.185,8.854-1.185,8.854,9.3,18.111,6.673,20.73-1.529,9.482-1.529,9.482,5.926-.225,3.461,2.371-3.8,15.894-3.8,15.894l-25.223,3.911s-2.442-2.845-6.092-10.478.367-6.934,3.71-7.906,1.185-2.975-2.951-5.346-1.991-8.107-1.991-8.107,5.677-10.5,3.556-11.26-2.892-15.207-2.892-15.207-4.848-17.021-3.983-21.679-3.959-15.586-3.959-15.586L859.588,654.4a36.317,36.317,0,0,1-5.571-24.76l-.735-20.4s-7.384-39.114-8.984-59.05c-1.031-12.73-1.553-30.13-1.79-41-.13-6.092-.178-10.134-.178-10.134l90.164-12.908a75.3,75.3,0,0,0,2.157,13.382c1.114,4.931,2.809,11.319,5.393,19.273,7.384,22.8,4.066,40.145,4.066,40.145l.284,29.158s8.712,19.178,7.289,25.958a56.359,56.359,0,0,0-1.185,12.22s19.45,41.852,18.04,54.286,7.112,31.635,7.112,31.635S978.245,726,976.29,729.854Z" transform="translate(-715.968 -225.176)" fill="#65617d"/>
      <path id="Path_1028" data-name="Path 1028" d="M908.13,602.061l27.415-4.741S920.552,613.866,908.13,602.061Z" transform="translate(-703.777 -204.579)" opacity="0.05"/>
      <path id="Path_1029" data-name="Path 1029" d="M927.706,574.74s1.316,9.707-4.516,13.607C923.225,588.347,933.857,586.261,927.706,574.74Z" transform="translate(-700.986 -208.763)" opacity="0.1"/>
      <path id="Path_1030" data-name="Path 1030" d="M929.606,548.63s-22.307,19.853-30.817,18.609S929.606,548.63,929.606,548.63Z" transform="translate(-705.731 -213.6)" opacity="0.1"/>
      <path id="Path_1031" data-name="Path 1031" d="M882.35,610s-17.34,4.646-17.589,11.687S882.35,610,882.35,610Z" transform="translate(-711.812 -202.23)" opacity="0.1"/>
      <path id="Path_1032" data-name="Path 1032" d="M888.614,683.55s-24.523,5.559-17.412,8.427,18.763,4.954,18.763,4.954S897.942,697.038,888.614,683.55Z" transform="translate(-710.858 -188.603)" opacity="0.05"/>
      <g id="Group_997" data-name="Group 997" transform="translate(126.326 273.265)" opacity="0.05">
        <path id="Path_1033" data-name="Path 1033" d="M867.491,695.547a4.918,4.918,0,0,1-2.371-3.5c-.142.284-.237.45-.237.45s-2.086,5.737,1.991,8.107c.474.273.913.533,1.328.794.735-.166,1.517-.3,2.276-.522C873.726,699.968,871.509,697.917,867.491,695.547Z" transform="translate(-838.215 -460.293)"/>
        <path id="Path_1034" data-name="Path 1034" d="M893.95,693.264c.652-.652.569-2.264.071-4.314a11.639,11.639,0,0,0-1.185,6.116A4.86,4.86,0,0,1,893.95,693.264Z" transform="translate(-832.944 -460.868)"/>
        <path id="Path_1035" data-name="Path 1035" d="M887.385,604.75a28.453,28.453,0,0,0-1.375,7.776,30.254,30.254,0,0,1,1.719-5.369S887.6,606.232,887.385,604.75Z" transform="translate(-834.202 -476.468)"/>
        <path id="Path_1036" data-name="Path 1036" d="M934.639,593.989a9.314,9.314,0,0,0,.142-2.3c-.249,1.576-.415,3.034-.521,4.314C934.378,595.353,934.5,594.677,934.639,593.989Z" transform="translate(-825.262 -478.887)"/>
        <path id="Path_1037" data-name="Path 1037" d="M889.174,668.35a13.329,13.329,0,0,0,.438-4.67,15.774,15.774,0,0,0-.972,5.926A5.694,5.694,0,0,1,889.174,668.35Z" transform="translate(-833.716 -465.549)"/>
        <path id="Path_1038" data-name="Path 1038" d="M900.342,700.8a82.468,82.468,0,0,0-2.371,13.038l-25.223,3.911s-2.43-2.845-6.08-10.466c-.32-.676-.581-1.28-.794-1.825-1.493.759-2.027,2.37.142,6.886,3.651,7.621,6.092,10.466,6.092,10.466l25.223-3.911s1.375-13.275,3.793-15.883C902.3,701.677,901.48,701.037,900.342,700.8Z" transform="translate(-838.174 -458.672)"/>
        <path id="Path_1039" data-name="Path 1039" d="M869.538,702.3s.771,14.46,2.892,15.219h0c.972-2.43,1.588-4.741.64-5.061-2.133-.759-2.892-15.219-2.892-15.219s-4.86-17.021-3.982-21.667-3.959-15.586-3.959-15.586l-1.979-13.145a36.316,36.316,0,0,1-5.571-24.76l-.782-20.328s-7.384-39.114-8.984-59.05c-1.031-12.73-1.553-30.142-1.79-41,0-1.968-.071-3.71-.107-5.18l-.723.107s0,4.03.19,10.134c.237,10.857.759,28.269,1.778,41,1.612,19.877,9,59.05,9,59.05l.782,20.327a36.317,36.317,0,0,0,5.571,24.76l1.968,13.145s4.836,10.928,3.959,15.586S869.538,702.3,869.538,702.3Z" transform="translate(-842.3 -496.52)"/>
        <path id="Path_1040" data-name="Path 1040" d="M930.593,709.53a24.51,24.51,0,0,1-4.385-9.79c-2.5,2.371.818,11.379,3.745,14.852,3.082,3.663,24.962,5.132,28.885-1.944l-.154-3.994C953.244,714.509,933.509,713.015,930.593,709.53Z" transform="translate(-826.917 -458.868)"/>
        <path id="Path_1041" data-name="Path 1041" d="M956.3,687.026a40.684,40.684,0,0,0-2.691,6.4l.107,2.939c.438-1.09,1.067-2.548,1.944-4.279a12.721,12.721,0,0,0,.711-5.227Z" transform="translate(-821.677 -461.255)"/>
        <path id="Path_1042" data-name="Path 1042" d="M932.213,695.565a39.584,39.584,0,0,0,1.873-5.061s-3.556.972-9.482-5.512c-4.3-4.741-4.9-13.927-4.54-19.972-.913,3.556-2.015,18.55,3.9,25.033C927.863,694.3,930.707,695.339,932.213,695.565Z" transform="translate(-828.027 -465.301)"/>
        <path id="Path_1043" data-name="Path 1043" d="M925.869,669.758a113.826,113.826,0,0,1,.9,12.4,15.269,15.269,0,0,1,.355-1.956c.913-3.556-.6-15.5-.6-15.5s-.119-8.392-1.9-11.059S918.7,635.61,918.7,635.61s-.2-5.239-3.248-7.847-5.334-13.228-5.334-13.228a13.8,13.8,0,0,1-2.442-8.937c.427-5.263-3.983-10.75-3.983-10.75l-8.012-22.366L888.32,555.77l-3.39,9.992v3.188l2.762-8.119,7.36,16.712,7.989,22.354s4.409,5.488,3.983,10.75a13.726,13.726,0,0,0,2.442,8.937s2.288,10.668,5.334,13.228,3.236,7.846,3.236,7.846,4.16,15.409,5.926,18.028S925.869,669.758,925.869,669.758Z" transform="translate(-834.402 -485.542)"/>
      </g>
      <path id="Path_1044" data-name="Path 1044" d="M925.111,329.041l-1.28,7.716.225,3.4.166,2.513-8.712,1.185-1.055-1.778h0c-1.932-3.212-5.926-9.743-7.207-10.667-1.659-1.292-5.369-22.461-1.861-21.335a9.186,9.186,0,0,1,5.049,4.22S927.719,315.624,925.111,329.041Z" transform="translate(-704.555 -257.806)" fill="#feb23e"/>
      <path id="Path_1045" data-name="Path 1045" d="M922.577,338.109l-8.712,1.185-1.055-1.778h0a7.728,7.728,0,0,1,9.6-1.968Z" transform="translate(-702.909 -253.244)" opacity="0.1"/>
      <path id="Path_1046" data-name="Path 1046" d="M924.964,342.039l-11.426,3.117-.308-1.707-.83-4.6s4.326-6.258,11.106-1.944l.664,2.371Z" transform="translate(-702.985 -253.108)" fill="#dce6f2"/>
      <g id="Group_1008" data-name="Group 1008" transform="translate(-1530.808 -378.895)">
        <g id="Group_1005-3" data-name="Group 1005" transform="translate(1537.312 363.76)">
          <rect id="Rectangle_740-3" data-name="Rectangle 740" width="185" height="83" rx="20" transform="translate(9 7.894)" fill="#f2f2f2"/>
          <path id="Rectangle_741-3" data-name="Rectangle 741" d="M0,0H185a0,0,0,0,1,0,0V5a20,20,0,0,1-20,20H20A20,20,0,0,1,0,5V0A0,0,0,0,1,0,0Z" transform="translate(9 65.894)" fill="#f2f2f2"/>
          <path id="Rectangle_742-3" data-name="Rectangle 742" d="M20,0H68a0,0,0,0,1,0,0V47A20,20,0,0,1,48,67H0a0,0,0,0,1,0,0V20A20,20,0,0,1,20,0Z" transform="translate(0 -0.106)" fill="#f2f2f2"/>
          <rect id="Rectangle_743-3" data-name="Rectangle 743" width="96" height="6" transform="translate(84 27.894)" fill="#f2f2f2"/>
          <rect id="Rectangle_744-3" data-name="Rectangle 744" width="96" height="6" transform="translate(84 37.894)" fill="#f2f2f2"/>
          <rect id="Rectangle_745-3" data-name="Rectangle 745" width="96" height="7" transform="translate(84 47.894)" fill="#f2f2f2"/>
        </g>
        <g id="Mask_Group_74-3" data-name="Mask Group 74" transform="translate(1548.005 375.791)" clip-path="url(#clip-path-4)">
          <path id="Path_1119-3" data-name="Path 1119" d="M22.9,0A22.9,22.9,0,1,1,0,22.9,22.9,22.9,0,0,1,22.9,0Z" transform="translate(-0.334 0.414)" fill="#f2f2f2"/>
          <ellipse id="Ellipse_121-3" data-name="Ellipse 121" cx="10.5" cy="11" rx="10.5" ry="11" transform="translate(12.306 8.864)" fill="#f2f2f2"/>
          <ellipse id="Ellipse_122-3" data-name="Ellipse 122" cx="16.5" cy="11" rx="16.5" ry="11" transform="translate(5.306 35.864)" fill="#f2f2f2"/>
        </g>
      </g>
      <path id="Path_1047" data-name="Path 1047" d="M769.368,338.479l-12.054,7.112s-.51-.948-1.185-2.276c-1.268-2.371-3.153-6.045-3.686-7.349-.806-2-6.045-4.386-6.045-4.386-13.358-11.853,1.588-22.982,1.588-22.982,7.491-16.665,17.388,4.883,17.388,4.883s1.707,11.485.842,12.3-.735,3.959-.735,3.959a46.568,46.568,0,0,1,3.236,6.934C769.143,337.768,769.368,338.479,769.368,338.479Z" transform="translate(-734.77 -259.243)" fill="#feb23e"/>
      <path id="Path_1048" data-name="Path 1048" d="M766.979,333.1l-12.054,7.112s-.51-.948-1.185-2.276c1.671-1.517,7.645-6.756,9.672-6.6a15.631,15.631,0,0,0,2.916,0C766.754,332.385,766.979,333.1,766.979,333.1Z" transform="translate(-732.381 -253.861)" opacity="0.1"/>
      <path id="Path_1049" data-name="Path 1049" d="M768.315,336.672l-13.571,7.349-.391-2.963-.273-2.051s7.752-7.171,10.134-7a12.826,12.826,0,0,0,3.556-.142l.261,2.477Z" transform="translate(-732.318 -253.762)" fill="#dce6f2"/>
      <path id="Path_1050" data-name="Path 1050" d="M903.021,377.233s-60.046,9.127-48.916,5.037c7.752-2.868,10.667-7.977,11.118-13.524.344-4.658-1.031-9.624-2.785-13.88A60.561,60.561,0,0,0,856.63,344.2s45.123-27.131,36.744-3.722A36.667,36.667,0,0,0,891.18,351.5a30.817,30.817,0,0,0,1.612,11.011,32.95,32.95,0,0,0,10.229,14.721Z" transform="translate(-714.041 -253.929)" fill="#feb23e"/>
      <path id="Path_1051" data-name="Path 1051" d="M892.811,340.486a36.671,36.671,0,0,0-2.193,11.023c-4.2,3.817-8.972,3.757-15.088,3.994-4.741.178-9.862,1.517-13.7-.6a60.561,60.561,0,0,0-5.808-10.667S901.143,317.089,892.811,340.486Z" transform="translate(-713.431 -253.926)" opacity="0.1"/>
      <circle id="Ellipse_112" data-name="Ellipse 112" cx="24.962" cy="24.962" r="24.962" transform="translate(135.429 53.314)" fill="#feb23e"/>
      <path id="Path_1052" data-name="Path 1052" d="M903.021,372.658s-60.046,9.127-48.916,5.037c7.752-2.868,10.667-7.977,11.118-13.524,2.88-3.378,8.818-5.926,12.647-7.349a18,18,0,0,1,10.916-.593,15.206,15.206,0,0,1,4.054,1.683,32.951,32.951,0,0,0,10.181,14.745Z" transform="translate(-714.041 -249.354)" opacity="0.1"/>
      <path id="Path_1053" data-name="Path 1053" d="M924.834,341.486,913.408,344.6,913.1,342.9a10.217,10.217,0,0,1,10.94-4.22Z" transform="translate(-702.856 -252.555)" opacity="0.1"/>
      <path id="Path_1054" data-name="Path 1054" d="M768.273,336.276,754.7,343.624l-.391-2.963A100.462,100.462,0,0,1,768.036,334Z" transform="translate(-732.275 -253.366)" opacity="0.1"/>
      <path id="Path_1055" data-name="Path 1055" d="M934.657,499.572c-23.208,4.587-56.265,10.667-61.634,9.257-4.433-1.185-18.4-.486-30.544.4-.13-6.092-.178-10.134-.178-10.134l90.164-12.908A75.287,75.287,0,0,0,934.657,499.572Z" transform="translate(-715.973 -225.169)" opacity="0.1"/>
      <path id="Path_1056" data-name="Path 1056" d="M974.584,521.271s-76.4,16.155-84.759,13.963-50.623,2.157-50.623,2.157c-18.573,13.512-11.343-5.654-11.343-5.654s-2.051-9.779,0-17.838a109.574,109.574,0,0,0,2.453-17.933s-.9-12.552,1.292-15.574,4.113-24.085,4.113-24.085,1.541-14.33,1.185-17.471.178-11.959.178-11.959l2.133-14.769c-15.8-1.493-64.7-28.992-64.7-28.992-2.691-9.755-21.335-32.121-21.335-32.121a24.061,24.061,0,0,0-1.683-5.606c-1.387-3.307,17.222-10.739,17.222-10.739s14.7,16.594,17.779,21.145,13.5,12.706,13.5,12.706a10.075,10.075,0,0,1,4.634.415l.237.071h0a37.525,37.525,0,0,1,9.589,5.026,18.206,18.206,0,0,1,12.967,4.326s8.546-1.588,10.063-.178,8.807-.332,8.807-.332,6.732-15.8,11.722-11.473,25.448,3.319,25.448,3.319c2.584-3.722,9.115-6.578,13.216-8.072a18,18,0,0,1,10.916-.6,14.012,14.012,0,0,1,4.4,1.92l12.872,11.675s3.39-4.741,2.927-5.784,4.125-2.039,4.125-2.039,6-2.122,8.3-2.845,4.48,1.707,4.682,1.908c-.095-.261-1.861-5.274-1.4-9.174s-2.809-7.444-2.809-7.444c6.649-18.3,23.777-3.852,23.777-3.852s2.276,9.779.735,13.619,2.133,11.663,1.79,13.773,1.055,5.63,1.185,9.613-1.648,11.6-2.774,15.006-10.9,11.331-10.9,11.331-.166,11.971-4.3,19.059-.5,30.663-.5,30.663,4.907,18.277,10.371,23.943S974.584,521.271,974.584,521.271Z" transform="translate(-732.811 -253.245)" fill="#3f3d56"/>
      <path id="Path_1057" data-name="Path 1057" d="M842.336,381.353s-2.572-6.827-4.741-7.372a50.293,50.293,0,0,1-6.175-2.489l1.185-2.631s7.953,1.849,9.3,4.113S842.336,381.353,842.336,381.353Z" transform="translate(-717.989 -246.907)" opacity="0.1"/>
      <path id="Path_1058" data-name="Path 1058" d="M807.564,368.655c-.344,2.11-18.964,4.741-18.964,4.741l9.067-9.826h0l.237.071h0a37.525,37.525,0,0,1,9.66,5.014Z" transform="translate(-725.922 -247.887)" opacity="0.1"/>
      <circle id="Ellipse_113" data-name="Ellipse 113" cx="1.683" cy="1.683" r="1.683" transform="translate(24.891 92.392)" fill="#575988"/>
      <circle id="Ellipse_114" data-name="Ellipse 114" cx="1.683" cy="1.683" r="1.683" transform="translate(27.166 95.663)" fill="#575988"/>
      <circle id="Ellipse_115" data-name="Ellipse 115" cx="1.683" cy="1.683" r="1.683" transform="translate(29.383 98.674)" fill="#575988"/>
      <circle id="Ellipse_116" data-name="Ellipse 116" cx="1.683" cy="1.683" r="1.683" transform="translate(31.706 101.945)" fill="#575988"/>
      <circle id="Ellipse_117" data-name="Ellipse 117" cx="1.363" cy="1.363" r="1.363" transform="translate(229.564 94.478)" fill="#575988"/>
      <circle id="Ellipse_118" data-name="Ellipse 118" cx="1.363" cy="1.363" r="1.363" transform="translate(229.896 97.56)" fill="#575988"/>
      <circle id="Ellipse_119" data-name="Ellipse 119" cx="1.363" cy="1.363" r="1.363" transform="translate(230.192 100.642)" fill="#575988"/>
      <path id="Path_1059" data-name="Path 1059" d="M842.56,427.31c-.2-.237,49.331,57.6,84.688,21.714C927.236,449.024,869.6,459.111,842.56,427.31Z" transform="translate(-715.925 -236.078)" opacity="0.1"/>
      <path id="Path_1060" data-name="Path 1060" d="M820.67,454.36s28.3-.32,31.576,7.692l.32,8.463a5.393,5.393,0,0,1-5.263.2c-2.9-1.422-20.327-9.482-26.194-5.037Z" transform="translate(-719.981 -231.066)" opacity="0.1"/>
      <path id="Path_1061" data-name="Path 1061" d="M821.12,454.34s27.06-.308,30.189,7.337l.308,8.072a5.192,5.192,0,0,1-5.037.19c-2.774-1.363-19.439-9.008-25.045-4.8Z" transform="translate(-719.897 -231.07)" fill="#656691"/>
      <path id="Path_1062" data-name="Path 1062" d="M831.7,402.07a90.933,90.933,0,0,0,11.687,18.384,73.762,73.762,0,0,0,17.779,15.906S832.316,405.934,831.7,402.07Z" transform="translate(-717.937 -240.754)" opacity="0.1"/>
      <path id="Path_1063" data-name="Path 1063" d="M822.83,374.66s5.5,20.15,17.921,26.621Z" transform="translate(-719.58 -245.833)" opacity="0.1"/>
      <g id="Group_1007" data-name="Group 1007" transform="translate(-1518.808 -385.895)">
        <g id="Group_1005-4" data-name="Group 1005" transform="translate(1537.312 363.76)">
          <rect id="Rectangle_740-4" data-name="Rectangle 740" width="185" height="83" rx="20" transform="translate(9 7.894)" fill="#f7f7f7"/>
          <path id="Rectangle_741-4" data-name="Rectangle 741" d="M0,0H185a0,0,0,0,1,0,0V5a20,20,0,0,1-20,20H20A20,20,0,0,1,0,5V0A0,0,0,0,1,0,0Z" transform="translate(9 65.894)" fill="#2ac1aa"/>
          <path id="Rectangle_742-4" data-name="Rectangle 742" d="M20,0H68a0,0,0,0,1,0,0V47A20,20,0,0,1,48,67H0a0,0,0,0,1,0,0V20A20,20,0,0,1,20,0Z" transform="translate(0 -0.106)" fill="#a7e1b6"/>
          <rect id="Rectangle_743-4" data-name="Rectangle 743" width="96" height="6" transform="translate(84 27.894)" fill="#a7e1b6"/>
          <rect id="Rectangle_744-4" data-name="Rectangle 744" width="96" height="6" transform="translate(84 37.894)" fill="#d5e8da"/>
          <rect id="Rectangle_745-4" data-name="Rectangle 745" width="96" height="7" transform="translate(84 47.894)" fill="#d5e8da"/>
        </g>
        <g id="Mask_Group_74-4" data-name="Mask Group 74" transform="translate(1547.005 369.791)" clip-path="url(#clip-path-2)">
          <path id="Path_1119-4" data-name="Path 1119" d="M22.9,0A22.9,22.9,0,1,1,0,22.9,22.9,22.9,0,0,1,22.9,0Z" transform="translate(-0.334 0.414)" fill="#a7e1b6"/>
          <ellipse id="Ellipse_121-4" data-name="Ellipse 121" cx="10.5" cy="11" rx="10.5" ry="11" transform="translate(12.306 8.864)" fill="#fff"/>
          <ellipse id="Ellipse_122-4" data-name="Ellipse 122" cx="16.5" cy="11" rx="16.5" ry="11" transform="translate(5.306 35.864)" fill="#fff"/>
        </g>
      </g>
      <path id="Path_1064" data-name="Path 1064" d="M816.847,376.631c-.142-.379-3.556,16.262,16.594,24.606C833.477,401.237,824.931,398.7,816.847,376.631Z" transform="translate(-720.745 -245.469)" opacity="0.1"/>
      <path id="Path_1065" data-name="Path 1065" d="M920.491,361.1c-.308,0,10.051,6.057,12.908,8.949C933.4,370.054,926.453,360.453,920.491,361.1Z" transform="translate(-701.488 -248.35)" opacity="0.1"/>
      <path id="Path_1066" data-name="Path 1066" d="M869.526,360.192a3.923,3.923,0,0,0,4.445,3.734c7.621.178,15.551.213,22.52-2.987a8.486,8.486,0,0,0,3.331-2.371c1.185-1.576,1.351-3.662,1.79-5.594.842-3.757,2.809-7.112,4.2-10.762a35.642,35.642,0,0,0,1.683-19.118,12.728,12.728,0,0,0-2.11-5.488c-2.133-2.809-5.855-3.828-8.6-6.021s-4.611-5.63-7.787-7.23c-2.868-1.446-6.294-1.185-9.482-.474a49.5,49.5,0,0,0-17.3,7.278c-1.766,1.185-3.7,2.525-5.8,2.216-1.837-.273-3.212-1.754-4.445-3.141a23.242,23.242,0,0,0-1.446,10.94,4.749,4.749,0,0,1,0,1.636,5.026,5.026,0,0,1-1.1,1.766c-1.79,2.252-2.833,5.749-.889,7.87.842.936,2.1,1.41,2.928,2.371,1.47,1.695,1.09,4.231,1.185,6.472a3.283,3.283,0,0,0,.64,2.193,3.236,3.236,0,0,0,3.105.616,8.382,8.382,0,0,1,3.26-.439,5.429,5.429,0,0,1,2.939,2.086C866.291,350.022,867.843,354.882,869.526,360.192Z" transform="translate(-715.014 -259.053)" fill="#2d293d"/>
      <g id="Group_998" data-name="Group 998" transform="translate(132.482 50.896)" opacity="0.1">
        <path id="Path_1067" data-name="Path 1067" d="M900.542,353.121a8.5,8.5,0,0,1-3.342,2.371c-6.922,3.2-14.84,3.176-22.461,2.987a3.923,3.923,0,0,1-4.456-3.722c-1.671-5.322-3.236-10.182-6.922-14.508a5.452,5.452,0,0,0-2.928-2.086,8.663,8.663,0,0,0-3.271.439,3.236,3.236,0,0,1-3.105-.616,3.354,3.354,0,0,1-.64-2.193c0-2.24.332-4.741-1.185-6.472-.818-.948-2.086-1.422-2.928-2.371a4.931,4.931,0,0,1-.676-4.99c-1.245,2.169-1.719,4.907-.095,6.7.842.924,2.11,1.4,2.928,2.371,1.47,1.695,1.1,4.231,1.185,6.483a3.272,3.272,0,0,0,.64,2.181,3.2,3.2,0,0,0,3.105.616,8.628,8.628,0,0,1,3.271-.439,5.511,5.511,0,0,1,2.927,2.086c3.686,4.338,5.239,9.186,6.922,14.508a5.274,5.274,0,0,0,2.074,3.3,5.345,5.345,0,0,0,2.37.439c7.621.178,15.551.2,22.52-3a8.593,8.593,0,0,0,3.343-2.371,6.781,6.781,0,0,0,1-2.062,3.438,3.438,0,0,1-.273.356Z" transform="translate(-847.494 -306.492)"/>
        <path id="Path_1068" data-name="Path 1068" d="M850.16,321.071a3.553,3.553,0,0,0,.711-1.292,4.467,4.467,0,0,0,0-1.636,23.22,23.22,0,0,1,.83-9.067l-.154-.166a23.279,23.279,0,0,0-1.446,10.94,7.038,7.038,0,0,1,.059,1.221Z" transform="translate(-847.036 -308.91)"/>
      </g>
      <path id="Path_1069" data-name="Path 1069" d="M862.82,364.491s31.315,2.94,33.934-1.861" transform="translate(-712.171 -248.061)" opacity="0.1"/>
      <path id="Path_1070" data-name="Path 1070" d="M913.5,351.363s17.3-.64,21.335,5.7" transform="translate(-702.782 -250.152)" opacity="0.1"/>
    </g>
  </g>
</svg>
